<svg xmlns="http://www.w3.org/2000/svg" xmlns:rdkit="http://www.rdkit.org/xml" xmlns:xlink="http://www.w3.org/1999/xlink" version="1.1" baseProfile="full" xml:space="preserve" width="1500px" height="500px" viewBox="0 0 1500 500">
<!-- END OF HEADER -->
<rect style="opacity:1.0;fill:#FFFFFF;stroke:none" width="1500.0" height="500.0" x="0.0" y="0.0"> </rect>
<rect style="opacity:1.0;fill:#FFFFFF;stroke:none" width="1500.0" height="500.0" x="0.0" y="0.0"> </rect>
<rect style="opacity:1.0;fill:#FFFFFF;stroke:none" width="1500.0" height="500.0" x="0.0" y="0.0"> </rect>
<path class="bond-0 atom-0 atom-1" d="M 121.1,408.9 L 86.6,378.3" style="fill:none;fill-rule:evenodd;stroke:#000000;stroke-width:2.0px;stroke-linecap:butt;stroke-linejoin:miter;stroke-opacity:1"/>
<path class="bond-0 atom-0 atom-1" d="M 122.1,397.4 L 97.9,376.0" style="fill:none;fill-rule:evenodd;stroke:#000000;stroke-width:2.0px;stroke-linecap:butt;stroke-linejoin:miter;stroke-opacity:1"/>
<path class="bond-31 atom-5 atom-0" d="M 164.9,394.3 L 121.1,408.9" style="fill:none;fill-rule:evenodd;stroke:#000000;stroke-width:2.0px;stroke-linecap:butt;stroke-linejoin:miter;stroke-opacity:1"/>
<path class="bond-1 atom-1 atom-2" d="M 86.6,378.3 L 95.8,333.1" style="fill:none;fill-rule:evenodd;stroke:#000000;stroke-width:2.0px;stroke-linecap:butt;stroke-linejoin:miter;stroke-opacity:1"/>
<path class="bond-2 atom-2 atom-3" d="M 95.8,333.1 L 139.6,318.5" style="fill:none;fill-rule:evenodd;stroke:#000000;stroke-width:2.0px;stroke-linecap:butt;stroke-linejoin:miter;stroke-opacity:1"/>
<path class="bond-2 atom-2 atom-3" d="M 105.3,339.7 L 135.9,329.4" style="fill:none;fill-rule:evenodd;stroke:#000000;stroke-width:2.0px;stroke-linecap:butt;stroke-linejoin:miter;stroke-opacity:1"/>
<path class="bond-27 atom-2 atom-28" d="M 95.8,333.1 L 61.2,302.5" style="fill:none;fill-rule:evenodd;stroke:#000000;stroke-width:2.0px;stroke-linecap:butt;stroke-linejoin:miter;stroke-opacity:1"/>
<path class="bond-3 atom-3 atom-4" d="M 139.6,318.5 L 174.1,349.0" style="fill:none;fill-rule:evenodd;stroke:#000000;stroke-width:2.0px;stroke-linecap:butt;stroke-linejoin:miter;stroke-opacity:1"/>
<path class="bond-6 atom-3 atom-7" d="M 139.6,318.5 L 148.8,273.2" style="fill:none;fill-rule:evenodd;stroke:#000000;stroke-width:2.0px;stroke-linecap:butt;stroke-linejoin:miter;stroke-opacity:1"/>
<path class="bond-4 atom-4 atom-5" d="M 174.1,349.0 L 164.9,394.3" style="fill:none;fill-rule:evenodd;stroke:#000000;stroke-width:2.0px;stroke-linecap:butt;stroke-linejoin:miter;stroke-opacity:1"/>
<path class="bond-4 atom-4 atom-5" d="M 163.7,354.0 L 157.3,385.7" style="fill:none;fill-rule:evenodd;stroke:#000000;stroke-width:2.0px;stroke-linecap:butt;stroke-linejoin:miter;stroke-opacity:1"/>
<path class="bond-5 atom-4 atom-6" d="M 174.1,349.0 L 192.9,342.8" style="fill:none;fill-rule:evenodd;stroke:#000000;stroke-width:2.0px;stroke-linecap:butt;stroke-linejoin:miter;stroke-opacity:1"/>
<path class="bond-5 atom-4 atom-6" d="M 192.9,342.8 L 211.7,336.5" style="fill:none;fill-rule:evenodd;stroke:#00CC00;stroke-width:2.0px;stroke-linecap:butt;stroke-linejoin:miter;stroke-opacity:1"/>
<path class="bond-7 atom-7 atom-8" d="M 148.8,273.2 L 136.2,259.5" style="fill:none;fill-rule:evenodd;stroke:#000000;stroke-width:2.0px;stroke-linecap:butt;stroke-linejoin:miter;stroke-opacity:1"/>
<path class="bond-7 atom-7 atom-8" d="M 136.2,259.5 L 123.7,245.8" style="fill:none;fill-rule:evenodd;stroke:#0000FF;stroke-width:2.0px;stroke-linecap:butt;stroke-linejoin:miter;stroke-opacity:1"/>
<path class="bond-7 atom-7 atom-8" d="M 151.8,262.9 L 143.0,253.3" style="fill:none;fill-rule:evenodd;stroke:#000000;stroke-width:2.0px;stroke-linecap:butt;stroke-linejoin:miter;stroke-opacity:1"/>
<path class="bond-7 atom-7 atom-8" d="M 143.0,253.3 L 134.3,243.7" style="fill:none;fill-rule:evenodd;stroke:#0000FF;stroke-width:2.0px;stroke-linecap:butt;stroke-linejoin:miter;stroke-opacity:1"/>
<path class="bond-32 atom-11 atom-7" d="M 190.8,254.1 L 148.8,273.2" style="fill:none;fill-rule:evenodd;stroke:#000000;stroke-width:2.0px;stroke-linecap:butt;stroke-linejoin:miter;stroke-opacity:1"/>
<path class="bond-8 atom-8 atom-9" d="M 121.9,231.5 L 128.9,219.1" style="fill:none;fill-rule:evenodd;stroke:#0000FF;stroke-width:2.0px;stroke-linecap:butt;stroke-linejoin:miter;stroke-opacity:1"/>
<path class="bond-8 atom-8 atom-9" d="M 128.9,219.1 L 135.9,206.7" style="fill:none;fill-rule:evenodd;stroke:#FF0000;stroke-width:2.0px;stroke-linecap:butt;stroke-linejoin:miter;stroke-opacity:1"/>
<path class="bond-9 atom-9 atom-10" d="M 147.5,200.4 L 166.5,204.3" style="fill:none;fill-rule:evenodd;stroke:#FF0000;stroke-width:2.0px;stroke-linecap:butt;stroke-linejoin:miter;stroke-opacity:1"/>
<path class="bond-9 atom-9 atom-10" d="M 166.5,204.3 L 185.6,208.2" style="fill:none;fill-rule:evenodd;stroke:#000000;stroke-width:2.0px;stroke-linecap:butt;stroke-linejoin:miter;stroke-opacity:1"/>
<path class="bond-10 atom-10 atom-11" d="M 185.6,208.2 L 190.8,254.1" style="fill:none;fill-rule:evenodd;stroke:#000000;stroke-width:2.0px;stroke-linecap:butt;stroke-linejoin:miter;stroke-opacity:1"/>
<path class="bond-10 atom-10 atom-11" d="M 177.2,216.1 L 180.8,248.2" style="fill:none;fill-rule:evenodd;stroke:#000000;stroke-width:2.0px;stroke-linecap:butt;stroke-linejoin:miter;stroke-opacity:1"/>
<path class="bond-22 atom-10 atom-23" d="M 185.6,208.2 L 219.6,177.0" style="fill:none;fill-rule:evenodd;stroke:#000000;stroke-width:2.0px;stroke-linecap:butt;stroke-linejoin:miter;stroke-opacity:1"/>
<path class="bond-11 atom-11 atom-12" d="M 190.8,254.1 L 231.0,276.8" style="fill:none;fill-rule:evenodd;stroke:#000000;stroke-width:2.0px;stroke-linecap:butt;stroke-linejoin:miter;stroke-opacity:1"/>
<path class="bond-12 atom-12 atom-13" d="M 231.0,276.8 L 247.3,267.2" style="fill:none;fill-rule:evenodd;stroke:#000000;stroke-width:2.0px;stroke-linecap:butt;stroke-linejoin:miter;stroke-opacity:1"/>
<path class="bond-12 atom-12 atom-13" d="M 247.3,267.2 L 263.6,257.6" style="fill:none;fill-rule:evenodd;stroke:#FF0000;stroke-width:2.0px;stroke-linecap:butt;stroke-linejoin:miter;stroke-opacity:1"/>
<path class="bond-13 atom-13 atom-14" d="M 277.9,257.4 L 294.4,266.8" style="fill:none;fill-rule:evenodd;stroke:#FF0000;stroke-width:2.0px;stroke-linecap:butt;stroke-linejoin:miter;stroke-opacity:1"/>
<path class="bond-13 atom-13 atom-14" d="M 294.4,266.8 L 310.9,276.1" style="fill:none;fill-rule:evenodd;stroke:#000000;stroke-width:2.0px;stroke-linecap:butt;stroke-linejoin:miter;stroke-opacity:1"/>
<path class="bond-14 atom-14 atom-15" d="M 310.9,276.1 L 311.3,322.3" style="fill:none;fill-rule:evenodd;stroke:#000000;stroke-width:2.0px;stroke-linecap:butt;stroke-linejoin:miter;stroke-opacity:1"/>
<path class="bond-14 atom-14 atom-15" d="M 320.2,283.0 L 320.5,315.3" style="fill:none;fill-rule:evenodd;stroke:#000000;stroke-width:2.0px;stroke-linecap:butt;stroke-linejoin:miter;stroke-opacity:1"/>
<path class="bond-33 atom-19 atom-14" d="M 350.7,252.7 L 310.9,276.1" style="fill:none;fill-rule:evenodd;stroke:#000000;stroke-width:2.0px;stroke-linecap:butt;stroke-linejoin:miter;stroke-opacity:1"/>
<path class="bond-15 atom-15 atom-16" d="M 311.3,322.3 L 351.5,345.0" style="fill:none;fill-rule:evenodd;stroke:#000000;stroke-width:2.0px;stroke-linecap:butt;stroke-linejoin:miter;stroke-opacity:1"/>
<path class="bond-16 atom-16 atom-17" d="M 351.5,345.0 L 391.3,321.6" style="fill:none;fill-rule:evenodd;stroke:#000000;stroke-width:2.0px;stroke-linecap:butt;stroke-linejoin:miter;stroke-opacity:1"/>
<path class="bond-16 atom-16 atom-17" d="M 352.8,333.5 L 380.6,317.1" style="fill:none;fill-rule:evenodd;stroke:#000000;stroke-width:2.0px;stroke-linecap:butt;stroke-linejoin:miter;stroke-opacity:1"/>
<path class="bond-17 atom-17 atom-18" d="M 391.3,321.6 L 390.9,275.4" style="fill:none;fill-rule:evenodd;stroke:#000000;stroke-width:2.0px;stroke-linecap:butt;stroke-linejoin:miter;stroke-opacity:1"/>
<path class="bond-19 atom-17 atom-20" d="M 391.3,321.6 L 431.5,344.3" style="fill:none;fill-rule:evenodd;stroke:#000000;stroke-width:2.0px;stroke-linecap:butt;stroke-linejoin:miter;stroke-opacity:1"/>
<path class="bond-18 atom-18 atom-19" d="M 390.9,275.4 L 350.7,252.7" style="fill:none;fill-rule:evenodd;stroke:#000000;stroke-width:2.0px;stroke-linecap:butt;stroke-linejoin:miter;stroke-opacity:1"/>
<path class="bond-18 atom-18 atom-19" d="M 380.3,280.0 L 352.2,264.1" style="fill:none;fill-rule:evenodd;stroke:#000000;stroke-width:2.0px;stroke-linecap:butt;stroke-linejoin:miter;stroke-opacity:1"/>
<path class="bond-20 atom-20 atom-21" d="M 433.8,348.3 L 450.1,338.7" style="fill:none;fill-rule:evenodd;stroke:#000000;stroke-width:2.0px;stroke-linecap:butt;stroke-linejoin:miter;stroke-opacity:1"/>
<path class="bond-20 atom-20 atom-21" d="M 450.1,338.7 L 466.5,329.1" style="fill:none;fill-rule:evenodd;stroke:#FF0000;stroke-width:2.0px;stroke-linecap:butt;stroke-linejoin:miter;stroke-opacity:1"/>
<path class="bond-20 atom-20 atom-21" d="M 429.1,340.3 L 445.5,330.7" style="fill:none;fill-rule:evenodd;stroke:#000000;stroke-width:2.0px;stroke-linecap:butt;stroke-linejoin:miter;stroke-opacity:1"/>
<path class="bond-20 atom-20 atom-21" d="M 445.5,330.7 L 461.8,321.1" style="fill:none;fill-rule:evenodd;stroke:#FF0000;stroke-width:2.0px;stroke-linecap:butt;stroke-linejoin:miter;stroke-opacity:1"/>
<path class="bond-21 atom-20 atom-22" d="M 431.5,344.3 L 431.7,363.5" style="fill:none;fill-rule:evenodd;stroke:#000000;stroke-width:2.0px;stroke-linecap:butt;stroke-linejoin:miter;stroke-opacity:1"/>
<path class="bond-21 atom-20 atom-22" d="M 431.7,363.5 L 431.8,382.7" style="fill:none;fill-rule:evenodd;stroke:#FF0000;stroke-width:2.0px;stroke-linecap:butt;stroke-linejoin:miter;stroke-opacity:1"/>
<path class="bond-23 atom-23 atom-24" d="M 219.6,177.0 L 214.4,131.1" style="fill:none;fill-rule:evenodd;stroke:#000000;stroke-width:2.0px;stroke-linecap:butt;stroke-linejoin:miter;stroke-opacity:1"/>
<path class="bond-23 atom-23 atom-24" d="M 228.0,169.1 L 224.3,137.0" style="fill:none;fill-rule:evenodd;stroke:#000000;stroke-width:2.0px;stroke-linecap:butt;stroke-linejoin:miter;stroke-opacity:1"/>
<path class="bond-34 atom-27 atom-23" d="M 264.8,186.2 L 219.6,177.0" style="fill:none;fill-rule:evenodd;stroke:#000000;stroke-width:2.0px;stroke-linecap:butt;stroke-linejoin:miter;stroke-opacity:1"/>
<path class="bond-24 atom-24 atom-25" d="M 214.4,131.1 L 232.3,122.9" style="fill:none;fill-rule:evenodd;stroke:#000000;stroke-width:2.0px;stroke-linecap:butt;stroke-linejoin:miter;stroke-opacity:1"/>
<path class="bond-24 atom-24 atom-25" d="M 232.3,122.9 L 250.3,114.8" style="fill:none;fill-rule:evenodd;stroke:#0000FF;stroke-width:2.0px;stroke-linecap:butt;stroke-linejoin:miter;stroke-opacity:1"/>
<path class="bond-25 atom-25 atom-26" d="M 262.5,118.7 L 275.0,132.3" style="fill:none;fill-rule:evenodd;stroke:#0000FF;stroke-width:2.0px;stroke-linecap:butt;stroke-linejoin:miter;stroke-opacity:1"/>
<path class="bond-25 atom-25 atom-26" d="M 275.0,132.3 L 287.6,146.0" style="fill:none;fill-rule:evenodd;stroke:#000000;stroke-width:2.0px;stroke-linecap:butt;stroke-linejoin:miter;stroke-opacity:1"/>
<path class="bond-26 atom-26 atom-27" d="M 287.6,146.0 L 264.8,186.2" style="fill:none;fill-rule:evenodd;stroke:#000000;stroke-width:2.0px;stroke-linecap:butt;stroke-linejoin:miter;stroke-opacity:1"/>
<path class="bond-26 atom-26 atom-27" d="M 276.1,147.5 L 260.2,175.6" style="fill:none;fill-rule:evenodd;stroke:#000000;stroke-width:2.0px;stroke-linecap:butt;stroke-linejoin:miter;stroke-opacity:1"/>
<path class="bond-28 atom-28 atom-29" d="M 61.2,302.5 L 46.4,289.4" style="fill:none;fill-rule:evenodd;stroke:#000000;stroke-width:2.0px;stroke-linecap:butt;stroke-linejoin:miter;stroke-opacity:1"/>
<path class="bond-28 atom-28 atom-29" d="M 46.4,289.4 L 31.7,276.4" style="fill:none;fill-rule:evenodd;stroke:#33CCCC;stroke-width:2.0px;stroke-linecap:butt;stroke-linejoin:miter;stroke-opacity:1"/>
<path class="bond-29 atom-28 atom-30" d="M 61.2,302.5 L 74.0,288.1" style="fill:none;fill-rule:evenodd;stroke:#000000;stroke-width:2.0px;stroke-linecap:butt;stroke-linejoin:miter;stroke-opacity:1"/>
<path class="bond-29 atom-28 atom-30" d="M 74.0,288.1 L 86.7,273.6" style="fill:none;fill-rule:evenodd;stroke:#33CCCC;stroke-width:2.0px;stroke-linecap:butt;stroke-linejoin:miter;stroke-opacity:1"/>
<path class="bond-30 atom-28 atom-31" d="M 61.2,302.5 L 48.4,316.9" style="fill:none;fill-rule:evenodd;stroke:#000000;stroke-width:2.0px;stroke-linecap:butt;stroke-linejoin:miter;stroke-opacity:1"/>
<path class="bond-30 atom-28 atom-31" d="M 48.4,316.9 L 35.6,331.4" style="fill:none;fill-rule:evenodd;stroke:#33CCCC;stroke-width:2.0px;stroke-linecap:butt;stroke-linejoin:miter;stroke-opacity:1"/>
<path class="atom-6" d="M 212.9 334.9 Q 212.9 331.6, 214.4 329.9 Q 215.9 328.2, 218.8 328.2 Q 221.5 328.2, 223.0 330.1 L 221.7 331.1 Q 220.7 329.7, 218.8 329.7 Q 216.9 329.7, 215.8 331.0 Q 214.8 332.3, 214.8 334.9 Q 214.8 337.4, 215.8 338.8 Q 216.9 340.1, 219.0 340.1 Q 220.5 340.1, 222.2 339.2 L 222.7 340.6 Q 222.0 341.1, 221.0 341.3 Q 219.9 341.6, 218.8 341.6 Q 215.9 341.6, 214.4 339.8 Q 212.9 338.1, 212.9 334.9 " fill="#00CC00"/>
<path class="atom-6" d="M 224.6 327.4 L 226.3 327.4 L 226.3 341.4 L 224.6 341.4 L 224.6 327.4 " fill="#00CC00"/>
<path class="atom-8" d="M 114.7 232.6 L 119.0 239.6 Q 119.4 240.2, 120.1 241.5 Q 120.8 242.7, 120.8 242.8 L 120.8 232.6 L 122.5 232.6 L 122.5 245.7 L 120.7 245.7 L 116.1 238.1 Q 115.6 237.2, 115.0 236.2 Q 114.5 235.2, 114.3 234.9 L 114.3 245.7 L 112.6 245.7 L 112.6 232.6 L 114.7 232.6 " fill="#0000FF"/>
<path class="atom-9" d="M 134.3 199.0 Q 134.3 195.9, 135.9 194.1 Q 137.4 192.4, 140.3 192.4 Q 143.2 192.4, 144.8 194.1 Q 146.3 195.9, 146.3 199.0 Q 146.3 202.2, 144.7 204.0 Q 143.2 205.8, 140.3 205.8 Q 137.4 205.8, 135.9 204.0 Q 134.3 202.2, 134.3 199.0 M 140.3 204.3 Q 142.3 204.3, 143.4 203.0 Q 144.5 201.6, 144.5 199.0 Q 144.5 196.5, 143.4 195.2 Q 142.3 193.8, 140.3 193.8 Q 138.3 193.8, 137.2 195.1 Q 136.2 196.4, 136.2 199.0 Q 136.2 201.7, 137.2 203.0 Q 138.3 204.3, 140.3 204.3 " fill="#FF0000"/>
<path class="atom-13" d="M 264.7 253.4 Q 264.7 250.3, 266.3 248.5 Q 267.8 246.8, 270.7 246.8 Q 273.6 246.8, 275.2 248.5 Q 276.8 250.3, 276.8 253.4 Q 276.8 256.6, 275.2 258.4 Q 273.6 260.2, 270.7 260.2 Q 267.9 260.2, 266.3 258.4 Q 264.7 256.6, 264.7 253.4 M 270.7 258.7 Q 272.7 258.7, 273.8 257.4 Q 274.9 256.0, 274.9 253.4 Q 274.9 250.8, 273.8 249.5 Q 272.7 248.2, 270.7 248.2 Q 268.8 248.2, 267.7 249.5 Q 266.6 250.8, 266.6 253.4 Q 266.6 256.0, 267.7 257.4 Q 268.8 258.7, 270.7 258.7 " fill="#FF0000"/>
<path class="atom-21" d="M 465.3 320.9 Q 465.3 317.8, 466.8 316.0 Q 468.4 314.3, 471.3 314.3 Q 474.2 314.3, 475.7 316.0 Q 477.3 317.8, 477.3 320.9 Q 477.3 324.1, 475.7 325.9 Q 474.1 327.7, 471.3 327.7 Q 468.4 327.7, 466.8 325.9 Q 465.3 324.1, 465.3 320.9 M 471.3 326.2 Q 473.3 326.2, 474.3 324.9 Q 475.4 323.5, 475.4 320.9 Q 475.4 318.4, 474.3 317.1 Q 473.3 315.8, 471.3 315.8 Q 469.3 315.8, 468.2 317.0 Q 467.1 318.3, 467.1 320.9 Q 467.1 323.6, 468.2 324.9 Q 469.3 326.2, 471.3 326.2 " fill="#FF0000"/>
<path class="atom-22" d="M 425.9 390.5 Q 425.9 387.4, 427.4 385.6 Q 429.0 383.9, 431.9 383.9 Q 434.8 383.9, 436.3 385.6 Q 437.9 387.4, 437.9 390.5 Q 437.9 393.7, 436.3 395.5 Q 434.8 397.3, 431.9 397.3 Q 429.0 397.3, 427.4 395.5 Q 425.9 393.7, 425.9 390.5 M 431.9 395.8 Q 433.9 395.8, 435.0 394.5 Q 436.0 393.1, 436.0 390.5 Q 436.0 388.0, 435.0 386.7 Q 433.9 385.4, 431.9 385.4 Q 429.9 385.4, 428.8 386.6 Q 427.7 387.9, 427.7 390.5 Q 427.7 393.2, 428.8 394.5 Q 429.9 395.8, 431.9 395.8 " fill="#FF0000"/>
<path class="atom-22" d="M 439.5 384.0 L 441.2 384.0 L 441.2 389.6 L 447.9 389.6 L 447.9 384.0 L 449.7 384.0 L 449.7 397.1 L 447.9 397.1 L 447.9 391.1 L 441.2 391.1 L 441.2 397.1 L 439.5 397.1 L 439.5 384.0 " fill="#FF0000"/>
<path class="atom-25" d="M 253.5 105.4 L 257.8 112.4 Q 258.2 113.0, 258.9 114.3 Q 259.6 115.5, 259.6 115.6 L 259.6 105.4 L 261.3 105.4 L 261.3 118.5 L 259.6 118.5 L 255.0 110.9 Q 254.4 110.1, 253.8 109.0 Q 253.3 108.0, 253.1 107.7 L 253.1 118.5 L 251.4 118.5 L 251.4 105.4 L 253.5 105.4 " fill="#0000FF"/>
<path class="atom-25" d="M 251.3 91.1 L 253.0 91.1 L 253.0 96.6 L 259.7 96.6 L 259.7 91.1 L 261.5 91.1 L 261.5 104.1 L 259.7 104.1 L 259.7 98.1 L 253.0 98.1 L 253.0 104.1 L 251.3 104.1 L 251.3 91.1 " fill="#0000FF"/>
<path class="atom-29" d="M 22.7 265.4 L 30.5 265.4 L 30.5 266.9 L 24.5 266.9 L 24.5 270.8 L 29.8 270.8 L 29.8 272.4 L 24.5 272.4 L 24.5 278.4 L 22.7 278.4 L 22.7 265.4 " fill="#33CCCC"/>
<path class="atom-30" d="M 87.9 261.4 L 95.7 261.4 L 95.7 262.9 L 89.7 262.9 L 89.7 266.9 L 95.0 266.9 L 95.0 268.4 L 89.7 268.4 L 89.7 274.5 L 87.9 274.5 L 87.9 261.4 " fill="#33CCCC"/>
<path class="atom-31" d="M 26.7 330.5 L 34.5 330.5 L 34.5 332.0 L 28.5 332.0 L 28.5 336.0 L 33.8 336.0 L 33.8 337.5 L 28.5 337.5 L 28.5 343.6 L 26.7 343.6 L 26.7 330.5 " fill="#33CCCC"/>
<path class="bond-0 atom-0 atom-1" d="M 603.5,363.8 L 645.8,345.3" style="fill:none;fill-rule:evenodd;stroke:#000000;stroke-width:2.0px;stroke-linecap:butt;stroke-linejoin:miter;stroke-opacity:1"/>
<path class="bond-1 atom-1 atom-2" d="M 645.8,345.3 L 683.0,372.7" style="fill:none;fill-rule:evenodd;stroke:#000000;stroke-width:2.0px;stroke-linecap:butt;stroke-linejoin:miter;stroke-opacity:1"/>
<path class="bond-2 atom-1 atom-3" d="M 645.8,345.3 L 651.0,299.4" style="fill:none;fill-rule:evenodd;stroke:#000000;stroke-width:2.0px;stroke-linecap:butt;stroke-linejoin:miter;stroke-opacity:1"/>
<path class="bond-3 atom-3 atom-4" d="M 651.0,299.4 L 613.8,272.0" style="fill:none;fill-rule:evenodd;stroke:#000000;stroke-width:2.0px;stroke-linecap:butt;stroke-linejoin:miter;stroke-opacity:1"/>
<path class="bond-3 atom-3 atom-4" d="M 650.9,287.9 L 624.9,268.7" style="fill:none;fill-rule:evenodd;stroke:#000000;stroke-width:2.0px;stroke-linecap:butt;stroke-linejoin:miter;stroke-opacity:1"/>
<path class="bond-21 atom-8 atom-3" d="M 693.3,281.0 L 651.0,299.4" style="fill:none;fill-rule:evenodd;stroke:#000000;stroke-width:2.0px;stroke-linecap:butt;stroke-linejoin:miter;stroke-opacity:1"/>
<path class="bond-4 atom-4 atom-5" d="M 613.8,272.0 L 619.0,226.2" style="fill:none;fill-rule:evenodd;stroke:#000000;stroke-width:2.0px;stroke-linecap:butt;stroke-linejoin:miter;stroke-opacity:1"/>
<path class="bond-19 atom-4 atom-20" d="M 613.8,272.0 L 596.2,279.7" style="fill:none;fill-rule:evenodd;stroke:#000000;stroke-width:2.0px;stroke-linecap:butt;stroke-linejoin:miter;stroke-opacity:1"/>
<path class="bond-19 atom-4 atom-20" d="M 596.2,279.7 L 578.7,287.4" style="fill:none;fill-rule:evenodd;stroke:#FF0000;stroke-width:2.0px;stroke-linecap:butt;stroke-linejoin:miter;stroke-opacity:1"/>
<path class="bond-5 atom-5 atom-6" d="M 619.0,226.2 L 661.3,207.7" style="fill:none;fill-rule:evenodd;stroke:#000000;stroke-width:2.0px;stroke-linecap:butt;stroke-linejoin:miter;stroke-opacity:1"/>
<path class="bond-5 atom-5 atom-6" d="M 629.0,231.8 L 658.6,218.9" style="fill:none;fill-rule:evenodd;stroke:#000000;stroke-width:2.0px;stroke-linecap:butt;stroke-linejoin:miter;stroke-opacity:1"/>
<path class="bond-6 atom-6 atom-7" d="M 661.3,207.7 L 698.4,235.1" style="fill:none;fill-rule:evenodd;stroke:#000000;stroke-width:2.0px;stroke-linecap:butt;stroke-linejoin:miter;stroke-opacity:1"/>
<path class="bond-7 atom-7 atom-8" d="M 698.4,235.1 L 693.3,281.0" style="fill:none;fill-rule:evenodd;stroke:#000000;stroke-width:2.0px;stroke-linecap:butt;stroke-linejoin:miter;stroke-opacity:1"/>
<path class="bond-7 atom-7 atom-8" d="M 688.5,240.9 L 684.9,273.0" style="fill:none;fill-rule:evenodd;stroke:#000000;stroke-width:2.0px;stroke-linecap:butt;stroke-linejoin:miter;stroke-opacity:1"/>
<path class="bond-8 atom-7 atom-9" d="M 698.4,235.1 L 716.0,227.4" style="fill:none;fill-rule:evenodd;stroke:#000000;stroke-width:2.0px;stroke-linecap:butt;stroke-linejoin:miter;stroke-opacity:1"/>
<path class="bond-8 atom-7 atom-9" d="M 716.0,227.4 L 733.6,219.7" style="fill:none;fill-rule:evenodd;stroke:#FF0000;stroke-width:2.0px;stroke-linecap:butt;stroke-linejoin:miter;stroke-opacity:1"/>
<path class="bond-9 atom-9 atom-10" d="M 747.9,221.9 L 762.9,232.9" style="fill:none;fill-rule:evenodd;stroke:#FF0000;stroke-width:2.0px;stroke-linecap:butt;stroke-linejoin:miter;stroke-opacity:1"/>
<path class="bond-9 atom-9 atom-10" d="M 762.9,232.9 L 777.9,244.0" style="fill:none;fill-rule:evenodd;stroke:#000000;stroke-width:2.0px;stroke-linecap:butt;stroke-linejoin:miter;stroke-opacity:1"/>
<path class="bond-10 atom-10 atom-11" d="M 777.9,244.0 L 772.8,289.9" style="fill:none;fill-rule:evenodd;stroke:#000000;stroke-width:2.0px;stroke-linecap:butt;stroke-linejoin:miter;stroke-opacity:1"/>
<path class="bond-10 atom-10 atom-11" d="M 786.3,251.9 L 782.7,284.0" style="fill:none;fill-rule:evenodd;stroke:#000000;stroke-width:2.0px;stroke-linecap:butt;stroke-linejoin:miter;stroke-opacity:1"/>
<path class="bond-22 atom-15 atom-10" d="M 820.2,225.5 L 777.9,244.0" style="fill:none;fill-rule:evenodd;stroke:#000000;stroke-width:2.0px;stroke-linecap:butt;stroke-linejoin:miter;stroke-opacity:1"/>
<path class="bond-11 atom-11 atom-12" d="M 772.8,289.9 L 809.9,317.3" style="fill:none;fill-rule:evenodd;stroke:#000000;stroke-width:2.0px;stroke-linecap:butt;stroke-linejoin:miter;stroke-opacity:1"/>
<path class="bond-18 atom-11 atom-19" d="M 772.8,289.9 L 752.6,298.7" style="fill:none;fill-rule:evenodd;stroke:#000000;stroke-width:2.0px;stroke-linecap:butt;stroke-linejoin:miter;stroke-opacity:1"/>
<path class="bond-18 atom-11 atom-19" d="M 752.6,298.7 L 732.5,307.5" style="fill:none;fill-rule:evenodd;stroke:#00CC00;stroke-width:2.0px;stroke-linecap:butt;stroke-linejoin:miter;stroke-opacity:1"/>
<path class="bond-12 atom-12 atom-13" d="M 809.9,317.3 L 852.2,298.8" style="fill:none;fill-rule:evenodd;stroke:#000000;stroke-width:2.0px;stroke-linecap:butt;stroke-linejoin:miter;stroke-opacity:1"/>
<path class="bond-12 atom-12 atom-13" d="M 812.6,306.1 L 842.2,293.1" style="fill:none;fill-rule:evenodd;stroke:#000000;stroke-width:2.0px;stroke-linecap:butt;stroke-linejoin:miter;stroke-opacity:1"/>
<path class="bond-13 atom-13 atom-14" d="M 852.2,298.8 L 857.4,252.9" style="fill:none;fill-rule:evenodd;stroke:#000000;stroke-width:2.0px;stroke-linecap:butt;stroke-linejoin:miter;stroke-opacity:1"/>
<path class="bond-16 atom-13 atom-17" d="M 852.2,298.8 L 889.4,326.2" style="fill:none;fill-rule:evenodd;stroke:#000000;stroke-width:2.0px;stroke-linecap:butt;stroke-linejoin:miter;stroke-opacity:1"/>
<path class="bond-14 atom-14 atom-15" d="M 857.4,252.9 L 820.2,225.5" style="fill:none;fill-rule:evenodd;stroke:#000000;stroke-width:2.0px;stroke-linecap:butt;stroke-linejoin:miter;stroke-opacity:1"/>
<path class="bond-14 atom-14 atom-15" d="M 846.3,256.2 L 820.3,237.1" style="fill:none;fill-rule:evenodd;stroke:#000000;stroke-width:2.0px;stroke-linecap:butt;stroke-linejoin:miter;stroke-opacity:1"/>
<path class="bond-15 atom-15 atom-16" d="M 820.2,225.5 L 822.3,206.7" style="fill:none;fill-rule:evenodd;stroke:#000000;stroke-width:2.0px;stroke-linecap:butt;stroke-linejoin:miter;stroke-opacity:1"/>
<path class="bond-15 atom-15 atom-16" d="M 822.3,206.7 L 824.4,188.0" style="fill:none;fill-rule:evenodd;stroke:#00CC00;stroke-width:2.0px;stroke-linecap:butt;stroke-linejoin:miter;stroke-opacity:1"/>
<path class="bond-17 atom-17 atom-18" d="M 889.4,326.2 L 887.3,345.3" style="fill:none;fill-rule:evenodd;stroke:#000000;stroke-width:2.0px;stroke-linecap:butt;stroke-linejoin:miter;stroke-opacity:1"/>
<path class="bond-17 atom-17 atom-18" d="M 887.3,345.3 L 885.1,364.3" style="fill:none;fill-rule:evenodd;stroke:#FF0000;stroke-width:2.0px;stroke-linecap:butt;stroke-linejoin:miter;stroke-opacity:1"/>
<path class="bond-20 atom-20 atom-21" d="M 564.3,285.2 L 549.3,274.2" style="fill:none;fill-rule:evenodd;stroke:#FF0000;stroke-width:2.0px;stroke-linecap:butt;stroke-linejoin:miter;stroke-opacity:1"/>
<path class="bond-20 atom-20 atom-21" d="M 549.3,274.2 L 534.3,263.1" style="fill:none;fill-rule:evenodd;stroke:#000000;stroke-width:2.0px;stroke-linecap:butt;stroke-linejoin:miter;stroke-opacity:1"/>
<path class="atom-9" d="M 734.8 216.6 Q 734.8 213.5, 736.3 211.7 Q 737.9 210.0, 740.8 210.0 Q 743.7 210.0, 745.2 211.7 Q 746.8 213.5, 746.8 216.6 Q 746.8 219.8, 745.2 221.6 Q 743.6 223.4, 740.8 223.4 Q 737.9 223.4, 736.3 221.6 Q 734.8 219.8, 734.8 216.6 M 740.8 221.9 Q 742.7 221.9, 743.8 220.6 Q 744.9 219.3, 744.9 216.6 Q 744.9 214.1, 743.8 212.8 Q 742.7 211.5, 740.8 211.5 Q 738.8 211.5, 737.7 212.8 Q 736.6 214.0, 736.6 216.6 Q 736.6 219.3, 737.7 220.6 Q 738.8 221.9, 740.8 221.9 " fill="#FF0000"/>
<path class="atom-16" d="M 820.3 180.1 Q 820.3 176.8, 821.8 175.1 Q 823.4 173.4, 826.3 173.4 Q 829.0 173.4, 830.4 175.3 L 829.2 176.3 Q 828.1 174.9, 826.3 174.9 Q 824.3 174.9, 823.3 176.3 Q 822.2 177.6, 822.2 180.1 Q 822.2 182.7, 823.3 184.0 Q 824.4 185.3, 826.5 185.3 Q 827.9 185.3, 829.6 184.5 L 830.1 185.9 Q 829.4 186.3, 828.4 186.6 Q 827.4 186.8, 826.2 186.8 Q 823.4 186.8, 821.8 185.1 Q 820.3 183.3, 820.3 180.1 " fill="#00CC00"/>
<path class="atom-16" d="M 832.0 172.6 L 833.7 172.6 L 833.7 186.6 L 832.0 186.6 L 832.0 172.6 " fill="#00CC00"/>
<path class="atom-18" d="M 878.2 372.1 Q 878.2 369.0, 879.8 367.2 Q 881.3 365.5, 884.2 365.5 Q 887.1 365.5, 888.7 367.2 Q 890.2 369.0, 890.2 372.1 Q 890.2 375.3, 888.7 377.1 Q 887.1 378.9, 884.2 378.9 Q 881.4 378.9, 879.8 377.1 Q 878.2 375.3, 878.2 372.1 M 884.2 377.4 Q 886.2 377.4, 887.3 376.1 Q 888.4 374.8, 888.4 372.1 Q 888.4 369.6, 887.3 368.3 Q 886.2 367.0, 884.2 367.0 Q 882.2 367.0, 881.2 368.3 Q 880.1 369.5, 880.1 372.1 Q 880.1 374.8, 881.2 376.1 Q 882.2 377.4, 884.2 377.4 " fill="#FF0000"/>
<path class="atom-18" d="M 891.8 365.6 L 893.6 365.6 L 893.6 371.2 L 900.3 371.2 L 900.3 365.6 L 902.0 365.6 L 902.0 378.7 L 900.3 378.7 L 900.3 372.7 L 893.6 372.7 L 893.6 378.7 L 891.8 378.7 L 891.8 365.6 " fill="#FF0000"/>
<path class="atom-19" d="M 717.9 308.8 Q 717.9 305.6, 719.4 303.9 Q 721.0 302.1, 723.9 302.1 Q 726.6 302.1, 728.0 304.1 L 726.8 305.0 Q 725.7 303.7, 723.9 303.7 Q 721.9 303.7, 720.8 305.0 Q 719.8 306.3, 719.8 308.8 Q 719.8 311.4, 720.9 312.7 Q 722.0 314.1, 724.1 314.1 Q 725.5 314.1, 727.2 313.2 L 727.7 314.6 Q 727.0 315.0, 726.0 315.3 Q 725.0 315.5, 723.8 315.5 Q 721.0 315.5, 719.4 313.8 Q 717.9 312.1, 717.9 308.8 " fill="#00CC00"/>
<path class="atom-19" d="M 729.6 301.4 L 731.3 301.4 L 731.3 315.4 L 729.6 315.4 L 729.6 301.4 " fill="#00CC00"/>
<path class="atom-20" d="M 565.5 290.6 Q 565.5 287.4, 567.1 285.7 Q 568.6 283.9, 571.5 283.9 Q 574.4 283.9, 576.0 285.7 Q 577.5 287.4, 577.5 290.6 Q 577.5 293.7, 575.9 295.5 Q 574.4 297.3, 571.5 297.3 Q 568.6 297.3, 567.1 295.5 Q 565.5 293.7, 565.5 290.6 M 571.5 295.9 Q 573.5 295.9, 574.6 294.5 Q 575.7 293.2, 575.7 290.6 Q 575.7 288.0, 574.6 286.7 Q 573.5 285.4, 571.5 285.4 Q 569.5 285.4, 568.4 286.7 Q 567.4 288.0, 567.4 290.6 Q 567.4 293.2, 568.4 294.5 Q 569.5 295.9, 571.5 295.9 " fill="#FF0000"/>
</svg>