<?xml version="1.0" encoding="utf-8" standalone="no"?>
<!DOCTYPE svg PUBLIC "-//W3C//DTD SVG 1.1//EN"
  "http://www.w3.org/Graphics/SVG/1.1/DTD/svg11.dtd">
<!-- Created with matplotlib (https://matplotlib.org/) -->
<svg height="360pt" version="1.1" viewBox="0 0 720 360" width="720pt" xmlns="http://www.w3.org/2000/svg" xmlns:xlink="http://www.w3.org/1999/xlink">
 <metadata>
  <rdf:RDF xmlns:cc="http://creativecommons.org/ns#" xmlns:dc="http://purl.org/dc/elements/1.1/" xmlns:rdf="http://www.w3.org/1999/02/22-rdf-syntax-ns#">
   <cc:Work>
    <dc:type rdf:resource="http://purl.org/dc/dcmitype/StillImage"/>
    <dc:date>2022-05-31T21:28:34.669451</dc:date>
    <dc:format>image/svg+xml</dc:format>
    <dc:creator>
     <cc:Agent>
      <dc:title>Matplotlib v3.3.1, https://matplotlib.org/</dc:title>
     </cc:Agent>
    </dc:creator>
   </cc:Work>
  </rdf:RDF>
 </metadata>
 <defs>
  <style type="text/css">*{stroke-linecap:butt;stroke-linejoin:round;}</style>
 </defs>
 <g id="figure_1">
  <g id="patch_1">
   <path d="M 0 360 
L 720 360 
L 720 0 
L 0 0 
z
" style="fill:none;"/>
  </g>
  <g id="axes_1">
   <g id="patch_2">
    <path d="M 90 315 
L 648 315 
L 648 43.2 
L 90 43.2 
z
" style="fill:#ffffff;"/>
   </g>
   <g id="patch_3">
    <path clip-path="url(#p75c8e129fe)" d="M 115.363636 315 
L 120.436364 315 
L 120.436364 314.987858 
L 115.363636 314.987858 
z
" style="fill:#1f77b4;"/>
   </g>
   <g id="patch_4">
    <path clip-path="url(#p75c8e129fe)" d="M 120.436364 315 
L 125.509091 315 
L 125.509091 314.958718 
L 120.436364 314.958718 
z
" style="fill:#1f77b4;"/>
   </g>
   <g id="patch_5">
    <path clip-path="url(#p75c8e129fe)" d="M 125.509091 315 
L 130.581818 315 
L 130.581818 314.935648 
L 125.509091 314.935648 
z
" style="fill:#1f77b4;"/>
   </g>
   <g id="patch_6">
    <path clip-path="url(#p75c8e129fe)" d="M 130.581818 315 
L 135.654545 315 
L 135.654545 314.939291 
L 130.581818 314.939291 
z
" style="fill:#1f77b4;"/>
   </g>
   <g id="patch_7">
    <path clip-path="url(#p75c8e129fe)" d="M 135.654545 315 
L 140.727273 315 
L 140.727273 314.911364 
L 135.654545 314.911364 
z
" style="fill:#1f77b4;"/>
   </g>
   <g id="patch_8">
    <path clip-path="url(#p75c8e129fe)" d="M 140.727273 315 
L 145.8 315 
L 145.8 314.878581 
L 140.727273 314.878581 
z
" style="fill:#1f77b4;"/>
   </g>
   <g id="patch_9">
    <path clip-path="url(#p75c8e129fe)" d="M 145.8 315 
L 150.872727 315 
L 150.872727 314.877367 
L 145.8 314.877367 
z
" style="fill:#1f77b4;"/>
   </g>
   <g id="patch_10">
    <path clip-path="url(#p75c8e129fe)" d="M 150.872727 315 
L 155.945455 315 
L 155.945455 314.833657 
L 150.872727 314.833657 
z
" style="fill:#1f77b4;"/>
   </g>
   <g id="patch_11">
    <path clip-path="url(#p75c8e129fe)" d="M 155.945455 315 
L 161.018182 315 
L 161.018182 314.681883 
L 155.945455 314.681883 
z
" style="fill:#1f77b4;"/>
   </g>
   <g id="patch_12">
    <path clip-path="url(#p75c8e129fe)" d="M 161.018182 315 
L 166.090909 315 
L 166.090909 314.418405 
L 161.018182 314.418405 
z
" style="fill:#1f77b4;"/>
   </g>
   <g id="patch_13">
    <path clip-path="url(#p75c8e129fe)" d="M 166.090909 315 
L 171.163636 315 
L 171.163636 313.997082 
L 166.090909 313.997082 
z
" style="fill:#1f77b4;"/>
   </g>
   <g id="patch_14">
    <path clip-path="url(#p75c8e129fe)" d="M 171.163636 315 
L 176.236364 315 
L 176.236364 313.199362 
L 171.163636 313.199362 
z
" style="fill:#1f77b4;"/>
   </g>
   <g id="patch_15">
    <path clip-path="url(#p75c8e129fe)" d="M 176.236364 315 
L 181.309091 315 
L 181.309091 311.805477 
L 176.236364 311.805477 
z
" style="fill:#1f77b4;"/>
   </g>
   <g id="patch_16">
    <path clip-path="url(#p75c8e129fe)" d="M 181.309091 315 
L 186.381818 315 
L 186.381818 309.955058 
L 181.309091 309.955058 
z
" style="fill:#1f77b4;"/>
   </g>
   <g id="patch_17">
    <path clip-path="url(#p75c8e129fe)" d="M 186.381818 315 
L 191.454545 315 
L 191.454545 307.322703 
L 186.381818 307.322703 
z
" style="fill:#1f77b4;"/>
   </g>
   <g id="patch_18">
    <path clip-path="url(#p75c8e129fe)" d="M 191.454545 315 
L 196.527273 315 
L 196.527273 303.218754 
L 191.454545 303.218754 
z
" style="fill:#1f77b4;"/>
   </g>
   <g id="patch_19">
    <path clip-path="url(#p75c8e129fe)" d="M 196.527273 315 
L 201.6 315 
L 201.6 297.904263 
L 196.527273 297.904263 
z
" style="fill:#1f77b4;"/>
   </g>
   <g id="patch_20">
    <path clip-path="url(#p75c8e129fe)" d="M 201.6 315 
L 206.672727 315 
L 206.672727 290.03391 
L 201.6 290.03391 
z
" style="fill:#1f77b4;"/>
   </g>
   <g id="patch_21">
    <path clip-path="url(#p75c8e129fe)" d="M 206.672727 315 
L 211.745455 315 
L 211.745455 280.104298 
L 206.672727 280.104298 
z
" style="fill:#1f77b4;"/>
   </g>
   <g id="patch_22">
    <path clip-path="url(#p75c8e129fe)" d="M 211.745455 315 
L 216.818182 315 
L 216.818182 267.033587 
L 211.745455 267.033587 
z
" style="fill:#1f77b4;"/>
   </g>
   <g id="patch_23">
    <path clip-path="url(#p75c8e129fe)" d="M 216.818182 315 
L 221.890909 315 
L 221.890909 251.557574 
L 216.818182 251.557574 
z
" style="fill:#1f77b4;"/>
   </g>
   <g id="patch_24">
    <path clip-path="url(#p75c8e129fe)" d="M 221.890909 315 
L 226.963636 315 
L 226.963636 232.292087 
L 221.890909 232.292087 
z
" style="fill:#1f77b4;"/>
   </g>
   <g id="patch_25">
    <path clip-path="url(#p75c8e129fe)" d="M 226.963636 315 
L 232.036364 315 
L 232.036364 210.021489 
L 226.963636 210.021489 
z
" style="fill:#1f77b4;"/>
   </g>
   <g id="patch_26">
    <path clip-path="url(#p75c8e129fe)" d="M 232.036364 315 
L 237.109091 315 
L 237.109091 187.047879 
L 232.036364 187.047879 
z
" style="fill:#1f77b4;"/>
   </g>
   <g id="patch_27">
    <path clip-path="url(#p75c8e129fe)" d="M 237.109091 315 
L 242.181818 315 
L 242.181818 159.236951 
L 237.109091 159.236951 
z
" style="fill:#1f77b4;"/>
   </g>
   <g id="patch_28">
    <path clip-path="url(#p75c8e129fe)" d="M 242.181818 315 
L 247.254545 315 
L 247.254545 133.969743 
L 242.181818 133.969743 
z
" style="fill:#1f77b4;"/>
   </g>
   <g id="patch_29">
    <path clip-path="url(#p75c8e129fe)" d="M 247.254545 315 
L 252.327273 315 
L 252.327273 109.17971 
L 247.254545 109.17971 
z
" style="fill:#1f77b4;"/>
   </g>
   <g id="patch_30">
    <path clip-path="url(#p75c8e129fe)" d="M 252.327273 315 
L 257.4 315 
L 257.4 89.015725 
L 252.327273 89.015725 
z
" style="fill:#1f77b4;"/>
   </g>
   <g id="patch_31">
    <path clip-path="url(#p75c8e129fe)" d="M 257.4 315 
L 262.472727 315 
L 262.472727 73.188813 
L 257.4 73.188813 
z
" style="fill:#1f77b4;"/>
   </g>
   <g id="patch_32">
    <path clip-path="url(#p75c8e129fe)" d="M 262.472727 315 
L 267.545455 315 
L 267.545455 63.146281 
L 262.472727 63.146281 
z
" style="fill:#1f77b4;"/>
   </g>
   <g id="patch_33">
    <path clip-path="url(#p75c8e129fe)" d="M 267.545455 315 
L 272.618182 315 
L 272.618182 57.387398 
L 267.545455 57.387398 
z
" style="fill:#1f77b4;"/>
   </g>
   <g id="patch_34">
    <path clip-path="url(#p75c8e129fe)" d="M 272.618182 315 
L 277.690909 315 
L 277.690909 56.142857 
L 272.618182 56.142857 
z
" style="fill:#1f77b4;"/>
   </g>
   <g id="patch_35">
    <path clip-path="url(#p75c8e129fe)" d="M 277.690909 315 
L 282.763636 315 
L 282.763636 58.066128 
L 277.690909 58.066128 
z
" style="fill:#1f77b4;"/>
   </g>
   <g id="patch_36">
    <path clip-path="url(#p75c8e129fe)" d="M 282.763636 315 
L 287.836364 315 
L 287.836364 62.225928 
L 282.763636 62.225928 
z
" style="fill:#1f77b4;"/>
   </g>
   <g id="patch_37">
    <path clip-path="url(#p75c8e129fe)" d="M 287.836364 315 
L 292.909091 315 
L 292.909091 67.522207 
L 287.836364 67.522207 
z
" style="fill:#1f77b4;"/>
   </g>
   <g id="patch_38">
    <path clip-path="url(#p75c8e129fe)" d="M 292.909091 315 
L 297.981818 315 
L 297.981818 72.561079 
L 292.909091 72.561079 
z
" style="fill:#1f77b4;"/>
   </g>
   <g id="patch_39">
    <path clip-path="url(#p75c8e129fe)" d="M 297.981818 315 
L 303.054545 315 
L 303.054545 79.956685 
L 297.981818 79.956685 
z
" style="fill:#1f77b4;"/>
   </g>
   <g id="patch_40">
    <path clip-path="url(#p75c8e129fe)" d="M 303.054545 315 
L 308.127273 315 
L 308.127273 88.601688 
L 303.054545 88.601688 
z
" style="fill:#1f77b4;"/>
   </g>
   <g id="patch_41">
    <path clip-path="url(#p75c8e129fe)" d="M 308.127273 315 
L 313.2 315 
L 313.2 98.329745 
L 308.127273 98.329745 
z
" style="fill:#1f77b4;"/>
   </g>
   <g id="patch_42">
    <path clip-path="url(#p75c8e129fe)" d="M 313.2 315 
L 318.272727 315 
L 318.272727 109.433475 
L 313.2 109.433475 
z
" style="fill:#1f77b4;"/>
   </g>
   <g id="patch_43">
    <path clip-path="url(#p75c8e129fe)" d="M 318.272727 315 
L 323.345455 315 
L 323.345455 119.9034 
L 318.272727 119.9034 
z
" style="fill:#1f77b4;"/>
   </g>
   <g id="patch_44">
    <path clip-path="url(#p75c8e129fe)" d="M 323.345455 315 
L 328.418182 315 
L 328.418182 131.411454 
L 323.345455 131.411454 
z
" style="fill:#1f77b4;"/>
   </g>
   <g id="patch_45">
    <path clip-path="url(#p75c8e129fe)" d="M 328.418182 315 
L 333.490909 315 
L 333.490909 142.930435 
L 328.418182 142.930435 
z
" style="fill:#1f77b4;"/>
   </g>
   <g id="patch_46">
    <path clip-path="url(#p75c8e129fe)" d="M 333.490909 315 
L 338.563636 315 
L 338.563636 154.83917 
L 333.490909 154.83917 
z
" style="fill:#1f77b4;"/>
   </g>
   <g id="patch_47">
    <path clip-path="url(#p75c8e129fe)" d="M 338.563636 315 
L 343.636364 315 
L 343.636364 166.887536 
L 338.563636 166.887536 
z
" style="fill:#1f77b4;"/>
   </g>
   <g id="patch_48">
    <path clip-path="url(#p75c8e129fe)" d="M 343.636364 315 
L 348.709091 315 
L 348.709091 179.220022 
L 343.636364 179.220022 
z
" style="fill:#1f77b4;"/>
   </g>
   <g id="patch_49">
    <path clip-path="url(#p75c8e129fe)" d="M 348.709091 315 
L 353.781818 315 
L 353.781818 191.983544 
L 348.709091 191.983544 
z
" style="fill:#1f77b4;"/>
   </g>
   <g id="patch_50">
    <path clip-path="url(#p75c8e129fe)" d="M 353.781818 315 
L 358.854545 315 
L 358.854545 203.730792 
L 353.781818 203.730792 
z
" style="fill:#1f77b4;"/>
   </g>
   <g id="patch_51">
    <path clip-path="url(#p75c8e129fe)" d="M 358.854545 315 
L 363.927273 315 
L 363.927273 216.229622 
L 358.854545 216.229622 
z
" style="fill:#1f77b4;"/>
   </g>
   <g id="patch_52">
    <path clip-path="url(#p75c8e129fe)" d="M 363.927273 315 
L 369 315 
L 369 227.220432 
L 363.927273 227.220432 
z
" style="fill:#1f77b4;"/>
   </g>
   <g id="patch_53">
    <path clip-path="url(#p75c8e129fe)" d="M 369 315 
L 374.072727 315 
L 374.072727 237.038339 
L 369 237.038339 
z
" style="fill:#1f77b4;"/>
   </g>
   <g id="patch_54">
    <path clip-path="url(#p75c8e129fe)" d="M 374.072727 315 
L 379.145455 315 
L 379.145455 246.823463 
L 374.072727 246.823463 
z
" style="fill:#1f77b4;"/>
   </g>
   <g id="patch_55">
    <path clip-path="url(#p75c8e129fe)" d="M 379.145455 315 
L 384.218182 315 
L 384.218182 254.679246 
L 379.145455 254.679246 
z
" style="fill:#1f77b4;"/>
   </g>
   <g id="patch_56">
    <path clip-path="url(#p75c8e129fe)" d="M 384.218182 315 
L 389.290909 315 
L 389.290909 262.645519 
L 384.218182 262.645519 
z
" style="fill:#1f77b4;"/>
   </g>
   <g id="patch_57">
    <path clip-path="url(#p75c8e129fe)" d="M 389.290909 315 
L 394.363636 315 
L 394.363636 269.923349 
L 389.290909 269.923349 
z
" style="fill:#1f77b4;"/>
   </g>
   <g id="patch_58">
    <path clip-path="url(#p75c8e129fe)" d="M 394.363636 315 
L 399.436364 315 
L 399.436364 275.905643 
L 394.363636 275.905643 
z
" style="fill:#1f77b4;"/>
   </g>
   <g id="patch_59">
    <path clip-path="url(#p75c8e129fe)" d="M 399.436364 315 
L 404.509091 315 
L 404.509091 281.172782 
L 399.436364 281.172782 
z
" style="fill:#1f77b4;"/>
   </g>
   <g id="patch_60">
    <path clip-path="url(#p75c8e129fe)" d="M 404.509091 315 
L 409.581818 315 
L 409.581818 286.119375 
L 404.509091 286.119375 
z
" style="fill:#1f77b4;"/>
   </g>
   <g id="patch_61">
    <path clip-path="url(#p75c8e129fe)" d="M 409.581818 315 
L 414.654545 315 
L 414.654545 290.171113 
L 409.581818 290.171113 
z
" style="fill:#1f77b4;"/>
   </g>
   <g id="patch_62">
    <path clip-path="url(#p75c8e129fe)" d="M 414.654545 315 
L 419.727273 315 
L 419.727273 293.774817 
L 414.654545 293.774817 
z
" style="fill:#1f77b4;"/>
   </g>
   <g id="patch_63">
    <path clip-path="url(#p75c8e129fe)" d="M 419.727273 315 
L 424.8 315 
L 424.8 296.665793 
L 419.727273 296.665793 
z
" style="fill:#1f77b4;"/>
   </g>
   <g id="patch_64">
    <path clip-path="url(#p75c8e129fe)" d="M 424.8 315 
L 429.872727 315 
L 429.872727 299.160945 
L 424.8 299.160945 
z
" style="fill:#1f77b4;"/>
   </g>
   <g id="patch_65">
    <path clip-path="url(#p75c8e129fe)" d="M 429.872727 315 
L 434.945455 315 
L 434.945455 301.873437 
L 429.872727 301.873437 
z
" style="fill:#1f77b4;"/>
   </g>
   <g id="patch_66">
    <path clip-path="url(#p75c8e129fe)" d="M 434.945455 315 
L 440.018182 315 
L 440.018182 303.714142 
L 434.945455 303.714142 
z
" style="fill:#1f77b4;"/>
   </g>
   <g id="patch_67">
    <path clip-path="url(#p75c8e129fe)" d="M 440.018182 315 
L 445.090909 315 
L 445.090909 305.422502 
L 440.018182 305.422502 
z
" style="fill:#1f77b4;"/>
   </g>
   <g id="patch_68">
    <path clip-path="url(#p75c8e129fe)" d="M 445.090909 315 
L 450.163636 315 
L 450.163636 307.177 
L 445.090909 307.177 
z
" style="fill:#1f77b4;"/>
   </g>
   <g id="patch_69">
    <path clip-path="url(#p75c8e129fe)" d="M 450.163636 315 
L 455.236364 315 
L 455.236364 308.455538 
L 450.163636 308.455538 
z
" style="fill:#1f77b4;"/>
   </g>
   <g id="patch_70">
    <path clip-path="url(#p75c8e129fe)" d="M 455.236364 315 
L 460.309091 315 
L 460.309091 309.743789 
L 455.236364 309.743789 
z
" style="fill:#1f77b4;"/>
   </g>
   <g id="patch_71">
    <path clip-path="url(#p75c8e129fe)" d="M 460.309091 315 
L 465.381818 315 
L 465.381818 310.896052 
L 460.309091 310.896052 
z
" style="fill:#1f77b4;"/>
   </g>
   <g id="patch_72">
    <path clip-path="url(#p75c8e129fe)" d="M 465.381818 315 
L 470.454545 315 
L 470.454545 311.805477 
L 465.381818 311.805477 
z
" style="fill:#1f77b4;"/>
   </g>
   <g id="patch_73">
    <path clip-path="url(#p75c8e129fe)" d="M 470.454545 315 
L 475.527273 315 
L 475.527273 312.520632 
L 470.454545 312.520632 
z
" style="fill:#1f77b4;"/>
   </g>
   <g id="patch_74">
    <path clip-path="url(#p75c8e129fe)" d="M 475.527273 315 
L 480.6 315 
L 480.6 313.037876 
L 475.527273 313.037876 
z
" style="fill:#1f77b4;"/>
   </g>
   <g id="patch_75">
    <path clip-path="url(#p75c8e129fe)" d="M 480.6 315 
L 485.672727 315 
L 485.672727 313.55269 
L 480.6 313.55269 
z
" style="fill:#1f77b4;"/>
   </g>
   <g id="patch_76">
    <path clip-path="url(#p75c8e129fe)" d="M 485.672727 315 
L 490.745455 315 
L 490.745455 313.873236 
L 485.672727 313.873236 
z
" style="fill:#1f77b4;"/>
   </g>
   <g id="patch_77">
    <path clip-path="url(#p75c8e129fe)" d="M 490.745455 315 
L 495.818182 315 
L 495.818182 314.180425 
L 490.745455 314.180425 
z
" style="fill:#1f77b4;"/>
   </g>
   <g id="patch_78">
    <path clip-path="url(#p75c8e129fe)" d="M 495.818182 315 
L 500.890909 315 
L 500.890909 314.424476 
L 495.818182 314.424476 
z
" style="fill:#1f77b4;"/>
   </g>
   <g id="patch_79">
    <path clip-path="url(#p75c8e129fe)" d="M 500.890909 315 
L 505.963636 315 
L 505.963636 314.562893 
L 500.890909 314.562893 
z
" style="fill:#1f77b4;"/>
   </g>
   <g id="patch_80">
    <path clip-path="url(#p75c8e129fe)" d="M 505.963636 315 
L 511.036364 315 
L 511.036364 314.715881 
L 505.963636 314.715881 
z
" style="fill:#1f77b4;"/>
   </g>
   <g id="patch_81">
    <path clip-path="url(#p75c8e129fe)" d="M 511.036364 315 
L 516.109091 315 
L 516.109091 314.775376 
L 511.036364 314.775376 
z
" style="fill:#1f77b4;"/>
   </g>
   <g id="patch_82">
    <path clip-path="url(#p75c8e129fe)" d="M 516.109091 315 
L 521.181818 315 
L 521.181818 314.864011 
L 516.109091 314.864011 
z
" style="fill:#1f77b4;"/>
   </g>
   <g id="patch_83">
    <path clip-path="url(#p75c8e129fe)" d="M 521.181818 315 
L 526.254545 315 
L 526.254545 314.882224 
L 521.181818 314.882224 
z
" style="fill:#1f77b4;"/>
   </g>
   <g id="patch_84">
    <path clip-path="url(#p75c8e129fe)" d="M 526.254545 315 
L 531.327273 315 
L 531.327273 314.911364 
L 526.254545 314.911364 
z
" style="fill:#1f77b4;"/>
   </g>
   <g id="patch_85">
    <path clip-path="url(#p75c8e129fe)" d="M 531.327273 315 
L 536.4 315 
L 536.4 314.942933 
L 531.327273 314.942933 
z
" style="fill:#1f77b4;"/>
   </g>
   <g id="patch_86">
    <path clip-path="url(#p75c8e129fe)" d="M 536.4 315 
L 541.472727 315 
L 541.472727 314.961146 
L 536.4 314.961146 
z
" style="fill:#1f77b4;"/>
   </g>
   <g id="patch_87">
    <path clip-path="url(#p75c8e129fe)" d="M 541.472727 315 
L 546.545455 315 
L 546.545455 314.967217 
L 541.472727 314.967217 
z
" style="fill:#1f77b4;"/>
   </g>
   <g id="patch_88">
    <path clip-path="url(#p75c8e129fe)" d="M 546.545455 315 
L 551.618182 315 
L 551.618182 314.973288 
L 546.545455 314.973288 
z
" style="fill:#1f77b4;"/>
   </g>
   <g id="patch_89">
    <path clip-path="url(#p75c8e129fe)" d="M 551.618182 315 
L 556.690909 315 
L 556.690909 314.986644 
L 551.618182 314.986644 
z
" style="fill:#1f77b4;"/>
   </g>
   <g id="patch_90">
    <path clip-path="url(#p75c8e129fe)" d="M 556.690909 315 
L 561.763636 315 
L 561.763636 314.990287 
L 556.690909 314.990287 
z
" style="fill:#1f77b4;"/>
   </g>
   <g id="patch_91">
    <path clip-path="url(#p75c8e129fe)" d="M 561.763636 315 
L 566.836364 315 
L 566.836364 314.995143 
L 561.763636 314.995143 
z
" style="fill:#1f77b4;"/>
   </g>
   <g id="patch_92">
    <path clip-path="url(#p75c8e129fe)" d="M 566.836364 315 
L 571.909091 315 
L 571.909091 314.992715 
L 566.836364 314.992715 
z
" style="fill:#1f77b4;"/>
   </g>
   <g id="patch_93">
    <path clip-path="url(#p75c8e129fe)" d="M 571.909091 315 
L 576.981818 315 
L 576.981818 315 
L 571.909091 315 
z
" style="fill:#1f77b4;"/>
   </g>
   <g id="patch_94">
    <path clip-path="url(#p75c8e129fe)" d="M 576.981818 315 
L 582.054545 315 
L 582.054545 315 
L 576.981818 315 
z
" style="fill:#1f77b4;"/>
   </g>
   <g id="patch_95">
    <path clip-path="url(#p75c8e129fe)" d="M 582.054545 315 
L 587.127273 315 
L 587.127273 314.997572 
L 582.054545 314.997572 
z
" style="fill:#1f77b4;"/>
   </g>
   <g id="patch_96">
    <path clip-path="url(#p75c8e129fe)" d="M 587.127273 315 
L 592.2 315 
L 592.2 314.996357 
L 587.127273 314.996357 
z
" style="fill:#1f77b4;"/>
   </g>
   <g id="patch_97">
    <path clip-path="url(#p75c8e129fe)" d="M 592.2 315 
L 597.272727 315 
L 597.272727 315 
L 592.2 315 
z
" style="fill:#1f77b4;"/>
   </g>
   <g id="patch_98">
    <path clip-path="url(#p75c8e129fe)" d="M 597.272727 315 
L 602.345455 315 
L 602.345455 315 
L 597.272727 315 
z
" style="fill:#1f77b4;"/>
   </g>
   <g id="patch_99">
    <path clip-path="url(#p75c8e129fe)" d="M 602.345455 315 
L 607.418182 315 
L 607.418182 314.998786 
L 602.345455 314.998786 
z
" style="fill:#1f77b4;"/>
   </g>
   <g id="patch_100">
    <path clip-path="url(#p75c8e129fe)" d="M 607.418182 315 
L 612.490909 315 
L 612.490909 315 
L 607.418182 315 
z
" style="fill:#1f77b4;"/>
   </g>
   <g id="patch_101">
    <path clip-path="url(#p75c8e129fe)" d="M 612.490909 315 
L 617.563636 315 
L 617.563636 315 
L 612.490909 315 
z
" style="fill:#1f77b4;"/>
   </g>
   <g id="patch_102">
    <path clip-path="url(#p75c8e129fe)" d="M 617.563636 315 
L 622.636364 315 
L 622.636364 314.998786 
L 617.563636 314.998786 
z
" style="fill:#1f77b4;"/>
   </g>
   <g id="matplotlib.axis_1">
    <g id="xtick_1">
     <g id="line2d_1">
      <path clip-path="url(#p75c8e129fe)" d="M 95.814272 315 
L 95.814272 43.2 
" style="fill:none;stroke:#b0b0b0;stroke-linecap:square;stroke-width:0.8;"/>
     </g>
     <g id="line2d_2">
      <defs>
       <path d="M 0 0 
L 0 3.5 
" id="m5a066a7de0" style="stroke:#000000;stroke-width:0.8;"/>
      </defs>
      <g>
       <use style="stroke:#000000;stroke-width:0.8;" x="95.814272" xlink:href="#m5a066a7de0" y="315"/>
      </g>
     </g>
     <g id="text_1">
      <!-- 0.0 -->
      <g transform="translate(87.862709 329.598437)scale(0.1 -0.1)">
       <defs>
        <path d="M 31.78125 66.40625 
Q 24.171875 66.40625 20.328125 58.90625 
Q 16.5 51.421875 16.5 36.375 
Q 16.5 21.390625 20.328125 13.890625 
Q 24.171875 6.390625 31.78125 6.390625 
Q 39.453125 6.390625 43.28125 13.890625 
Q 47.125 21.390625 47.125 36.375 
Q 47.125 51.421875 43.28125 58.90625 
Q 39.453125 66.40625 31.78125 66.40625 
z
M 31.78125 74.21875 
Q 44.046875 74.21875 50.515625 64.515625 
Q 56.984375 54.828125 56.984375 36.375 
Q 56.984375 17.96875 50.515625 8.265625 
Q 44.046875 -1.421875 31.78125 -1.421875 
Q 19.53125 -1.421875 13.0625 8.265625 
Q 6.59375 17.96875 6.59375 36.375 
Q 6.59375 54.828125 13.0625 64.515625 
Q 19.53125 74.21875 31.78125 74.21875 
z
" id="DejaVuSans-48"/>
        <path d="M 10.6875 12.40625 
L 21 12.40625 
L 21 0 
L 10.6875 0 
z
" id="DejaVuSans-46"/>
       </defs>
       <use xlink:href="#DejaVuSans-48"/>
       <use x="63.623047" xlink:href="#DejaVuSans-46"/>
       <use x="95.410156" xlink:href="#DejaVuSans-48"/>
      </g>
     </g>
    </g>
    <g id="xtick_2">
     <g id="line2d_3">
      <path clip-path="url(#p75c8e129fe)" d="M 177.432869 315 
L 177.432869 43.2 
" style="fill:none;stroke:#b0b0b0;stroke-linecap:square;stroke-width:0.8;"/>
     </g>
     <g id="line2d_4">
      <g>
       <use style="stroke:#000000;stroke-width:0.8;" x="177.432869" xlink:href="#m5a066a7de0" y="315"/>
      </g>
     </g>
     <g id="text_2">
      <!-- 0.1 -->
      <g transform="translate(169.481306 329.598437)scale(0.1 -0.1)">
       <defs>
        <path d="M 12.40625 8.296875 
L 28.515625 8.296875 
L 28.515625 63.921875 
L 10.984375 60.40625 
L 10.984375 69.390625 
L 28.421875 72.90625 
L 38.28125 72.90625 
L 38.28125 8.296875 
L 54.390625 8.296875 
L 54.390625 0 
L 12.40625 0 
z
" id="DejaVuSans-49"/>
       </defs>
       <use xlink:href="#DejaVuSans-48"/>
       <use x="63.623047" xlink:href="#DejaVuSans-46"/>
       <use x="95.410156" xlink:href="#DejaVuSans-49"/>
      </g>
     </g>
    </g>
    <g id="xtick_3">
     <g id="line2d_5">
      <path clip-path="url(#p75c8e129fe)" d="M 259.051466 315 
L 259.051466 43.2 
" style="fill:none;stroke:#b0b0b0;stroke-linecap:square;stroke-width:0.8;"/>
     </g>
     <g id="line2d_6">
      <g>
       <use style="stroke:#000000;stroke-width:0.8;" x="259.051466" xlink:href="#m5a066a7de0" y="315"/>
      </g>
     </g>
     <g id="text_3">
      <!-- 0.2 -->
      <g transform="translate(251.099904 329.598437)scale(0.1 -0.1)">
       <defs>
        <path d="M 19.1875 8.296875 
L 53.609375 8.296875 
L 53.609375 0 
L 7.328125 0 
L 7.328125 8.296875 
Q 12.9375 14.109375 22.625 23.890625 
Q 32.328125 33.6875 34.8125 36.53125 
Q 39.546875 41.84375 41.421875 45.53125 
Q 43.3125 49.21875 43.3125 52.78125 
Q 43.3125 58.59375 39.234375 62.25 
Q 35.15625 65.921875 28.609375 65.921875 
Q 23.96875 65.921875 18.8125 64.3125 
Q 13.671875 62.703125 7.8125 59.421875 
L 7.8125 69.390625 
Q 13.765625 71.78125 18.9375 73 
Q 24.125 74.21875 28.421875 74.21875 
Q 39.75 74.21875 46.484375 68.546875 
Q 53.21875 62.890625 53.21875 53.421875 
Q 53.21875 48.921875 51.53125 44.890625 
Q 49.859375 40.875 45.40625 35.40625 
Q 44.1875 33.984375 37.640625 27.21875 
Q 31.109375 20.453125 19.1875 8.296875 
z
" id="DejaVuSans-50"/>
       </defs>
       <use xlink:href="#DejaVuSans-48"/>
       <use x="63.623047" xlink:href="#DejaVuSans-46"/>
       <use x="95.410156" xlink:href="#DejaVuSans-50"/>
      </g>
     </g>
    </g>
    <g id="xtick_4">
     <g id="line2d_7">
      <path clip-path="url(#p75c8e129fe)" d="M 340.670063 315 
L 340.670063 43.2 
" style="fill:none;stroke:#b0b0b0;stroke-linecap:square;stroke-width:0.8;"/>
     </g>
     <g id="line2d_8">
      <g>
       <use style="stroke:#000000;stroke-width:0.8;" x="340.670063" xlink:href="#m5a066a7de0" y="315"/>
      </g>
     </g>
     <g id="text_4">
      <!-- 0.3 -->
      <g transform="translate(332.718501 329.598437)scale(0.1 -0.1)">
       <defs>
        <path d="M 40.578125 39.3125 
Q 47.65625 37.796875 51.625 33 
Q 55.609375 28.21875 55.609375 21.1875 
Q 55.609375 10.40625 48.1875 4.484375 
Q 40.765625 -1.421875 27.09375 -1.421875 
Q 22.515625 -1.421875 17.65625 -0.515625 
Q 12.796875 0.390625 7.625 2.203125 
L 7.625 11.71875 
Q 11.71875 9.328125 16.59375 8.109375 
Q 21.484375 6.890625 26.8125 6.890625 
Q 36.078125 6.890625 40.9375 10.546875 
Q 45.796875 14.203125 45.796875 21.1875 
Q 45.796875 27.640625 41.28125 31.265625 
Q 36.765625 34.90625 28.71875 34.90625 
L 20.21875 34.90625 
L 20.21875 43.015625 
L 29.109375 43.015625 
Q 36.375 43.015625 40.234375 45.921875 
Q 44.09375 48.828125 44.09375 54.296875 
Q 44.09375 59.90625 40.109375 62.90625 
Q 36.140625 65.921875 28.71875 65.921875 
Q 24.65625 65.921875 20.015625 65.03125 
Q 15.375 64.15625 9.8125 62.3125 
L 9.8125 71.09375 
Q 15.4375 72.65625 20.34375 73.4375 
Q 25.25 74.21875 29.59375 74.21875 
Q 40.828125 74.21875 47.359375 69.109375 
Q 53.90625 64.015625 53.90625 55.328125 
Q 53.90625 49.265625 50.4375 45.09375 
Q 46.96875 40.921875 40.578125 39.3125 
z
" id="DejaVuSans-51"/>
       </defs>
       <use xlink:href="#DejaVuSans-48"/>
       <use x="63.623047" xlink:href="#DejaVuSans-46"/>
       <use x="95.410156" xlink:href="#DejaVuSans-51"/>
      </g>
     </g>
    </g>
    <g id="xtick_5">
     <g id="line2d_9">
      <path clip-path="url(#p75c8e129fe)" d="M 422.28866 315 
L 422.28866 43.2 
" style="fill:none;stroke:#b0b0b0;stroke-linecap:square;stroke-width:0.8;"/>
     </g>
     <g id="line2d_10">
      <g>
       <use style="stroke:#000000;stroke-width:0.8;" x="422.28866" xlink:href="#m5a066a7de0" y="315"/>
      </g>
     </g>
     <g id="text_5">
      <!-- 0.4 -->
      <g transform="translate(414.337098 329.598437)scale(0.1 -0.1)">
       <defs>
        <path d="M 37.796875 64.3125 
L 12.890625 25.390625 
L 37.796875 25.390625 
z
M 35.203125 72.90625 
L 47.609375 72.90625 
L 47.609375 25.390625 
L 58.015625 25.390625 
L 58.015625 17.1875 
L 47.609375 17.1875 
L 47.609375 0 
L 37.796875 0 
L 37.796875 17.1875 
L 4.890625 17.1875 
L 4.890625 26.703125 
z
" id="DejaVuSans-52"/>
       </defs>
       <use xlink:href="#DejaVuSans-48"/>
       <use x="63.623047" xlink:href="#DejaVuSans-46"/>
       <use x="95.410156" xlink:href="#DejaVuSans-52"/>
      </g>
     </g>
    </g>
    <g id="xtick_6">
     <g id="line2d_11">
      <path clip-path="url(#p75c8e129fe)" d="M 503.907258 315 
L 503.907258 43.2 
" style="fill:none;stroke:#b0b0b0;stroke-linecap:square;stroke-width:0.8;"/>
     </g>
     <g id="line2d_12">
      <g>
       <use style="stroke:#000000;stroke-width:0.8;" x="503.907258" xlink:href="#m5a066a7de0" y="315"/>
      </g>
     </g>
     <g id="text_6">
      <!-- 0.5 -->
      <g transform="translate(495.955695 329.598437)scale(0.1 -0.1)">
       <defs>
        <path d="M 10.796875 72.90625 
L 49.515625 72.90625 
L 49.515625 64.59375 
L 19.828125 64.59375 
L 19.828125 46.734375 
Q 21.96875 47.46875 24.109375 47.828125 
Q 26.265625 48.1875 28.421875 48.1875 
Q 40.625 48.1875 47.75 41.5 
Q 54.890625 34.8125 54.890625 23.390625 
Q 54.890625 11.625 47.5625 5.09375 
Q 40.234375 -1.421875 26.90625 -1.421875 
Q 22.3125 -1.421875 17.546875 -0.640625 
Q 12.796875 0.140625 7.71875 1.703125 
L 7.71875 11.625 
Q 12.109375 9.234375 16.796875 8.0625 
Q 21.484375 6.890625 26.703125 6.890625 
Q 35.15625 6.890625 40.078125 11.328125 
Q 45.015625 15.765625 45.015625 23.390625 
Q 45.015625 31 40.078125 35.4375 
Q 35.15625 39.890625 26.703125 39.890625 
Q 22.75 39.890625 18.8125 39.015625 
Q 14.890625 38.140625 10.796875 36.28125 
z
" id="DejaVuSans-53"/>
       </defs>
       <use xlink:href="#DejaVuSans-48"/>
       <use x="63.623047" xlink:href="#DejaVuSans-46"/>
       <use x="95.410156" xlink:href="#DejaVuSans-53"/>
      </g>
     </g>
    </g>
    <g id="xtick_7">
     <g id="line2d_13">
      <path clip-path="url(#p75c8e129fe)" d="M 585.525855 315 
L 585.525855 43.2 
" style="fill:none;stroke:#b0b0b0;stroke-linecap:square;stroke-width:0.8;"/>
     </g>
     <g id="line2d_14">
      <g>
       <use style="stroke:#000000;stroke-width:0.8;" x="585.525855" xlink:href="#m5a066a7de0" y="315"/>
      </g>
     </g>
     <g id="text_7">
      <!-- 0.6 -->
      <g transform="translate(577.574292 329.598437)scale(0.1 -0.1)">
       <defs>
        <path d="M 33.015625 40.375 
Q 26.375 40.375 22.484375 35.828125 
Q 18.609375 31.296875 18.609375 23.390625 
Q 18.609375 15.53125 22.484375 10.953125 
Q 26.375 6.390625 33.015625 6.390625 
Q 39.65625 6.390625 43.53125 10.953125 
Q 47.40625 15.53125 47.40625 23.390625 
Q 47.40625 31.296875 43.53125 35.828125 
Q 39.65625 40.375 33.015625 40.375 
z
M 52.59375 71.296875 
L 52.59375 62.3125 
Q 48.875 64.0625 45.09375 64.984375 
Q 41.3125 65.921875 37.59375 65.921875 
Q 27.828125 65.921875 22.671875 59.328125 
Q 17.53125 52.734375 16.796875 39.40625 
Q 19.671875 43.65625 24.015625 45.921875 
Q 28.375 48.1875 33.59375 48.1875 
Q 44.578125 48.1875 50.953125 41.515625 
Q 57.328125 34.859375 57.328125 23.390625 
Q 57.328125 12.15625 50.6875 5.359375 
Q 44.046875 -1.421875 33.015625 -1.421875 
Q 20.359375 -1.421875 13.671875 8.265625 
Q 6.984375 17.96875 6.984375 36.375 
Q 6.984375 53.65625 15.1875 63.9375 
Q 23.390625 74.21875 37.203125 74.21875 
Q 40.921875 74.21875 44.703125 73.484375 
Q 48.484375 72.75 52.59375 71.296875 
z
" id="DejaVuSans-54"/>
       </defs>
       <use xlink:href="#DejaVuSans-48"/>
       <use x="63.623047" xlink:href="#DejaVuSans-46"/>
       <use x="95.410156" xlink:href="#DejaVuSans-54"/>
      </g>
     </g>
    </g>
    <g id="text_8">
     <!-- Tanimoto similarity -->
     <g transform="translate(302.556875 346.315938)scale(0.14 -0.14)">
      <defs>
       <path d="M -0.296875 72.90625 
L 61.375 72.90625 
L 61.375 64.59375 
L 35.5 64.59375 
L 35.5 0 
L 25.59375 0 
L 25.59375 64.59375 
L -0.296875 64.59375 
z
" id="DejaVuSans-84"/>
       <path d="M 34.28125 27.484375 
Q 23.390625 27.484375 19.1875 25 
Q 14.984375 22.515625 14.984375 16.5 
Q 14.984375 11.71875 18.140625 8.90625 
Q 21.296875 6.109375 26.703125 6.109375 
Q 34.1875 6.109375 38.703125 11.40625 
Q 43.21875 16.703125 43.21875 25.484375 
L 43.21875 27.484375 
z
M 52.203125 31.203125 
L 52.203125 0 
L 43.21875 0 
L 43.21875 8.296875 
Q 40.140625 3.328125 35.546875 0.953125 
Q 30.953125 -1.421875 24.3125 -1.421875 
Q 15.921875 -1.421875 10.953125 3.296875 
Q 6 8.015625 6 15.921875 
Q 6 25.140625 12.171875 29.828125 
Q 18.359375 34.515625 30.609375 34.515625 
L 43.21875 34.515625 
L 43.21875 35.40625 
Q 43.21875 41.609375 39.140625 45 
Q 35.0625 48.390625 27.6875 48.390625 
Q 23 48.390625 18.546875 47.265625 
Q 14.109375 46.140625 10.015625 43.890625 
L 10.015625 52.203125 
Q 14.9375 54.109375 19.578125 55.046875 
Q 24.21875 56 28.609375 56 
Q 40.484375 56 46.34375 49.84375 
Q 52.203125 43.703125 52.203125 31.203125 
z
" id="DejaVuSans-97"/>
       <path d="M 54.890625 33.015625 
L 54.890625 0 
L 45.90625 0 
L 45.90625 32.71875 
Q 45.90625 40.484375 42.875 44.328125 
Q 39.84375 48.1875 33.796875 48.1875 
Q 26.515625 48.1875 22.3125 43.546875 
Q 18.109375 38.921875 18.109375 30.90625 
L 18.109375 0 
L 9.078125 0 
L 9.078125 54.6875 
L 18.109375 54.6875 
L 18.109375 46.1875 
Q 21.34375 51.125 25.703125 53.5625 
Q 30.078125 56 35.796875 56 
Q 45.21875 56 50.046875 50.171875 
Q 54.890625 44.34375 54.890625 33.015625 
z
" id="DejaVuSans-110"/>
       <path d="M 9.421875 54.6875 
L 18.40625 54.6875 
L 18.40625 0 
L 9.421875 0 
z
M 9.421875 75.984375 
L 18.40625 75.984375 
L 18.40625 64.59375 
L 9.421875 64.59375 
z
" id="DejaVuSans-105"/>
       <path d="M 52 44.1875 
Q 55.375 50.25 60.0625 53.125 
Q 64.75 56 71.09375 56 
Q 79.640625 56 84.28125 50.015625 
Q 88.921875 44.046875 88.921875 33.015625 
L 88.921875 0 
L 79.890625 0 
L 79.890625 32.71875 
Q 79.890625 40.578125 77.09375 44.375 
Q 74.3125 48.1875 68.609375 48.1875 
Q 61.625 48.1875 57.5625 43.546875 
Q 53.515625 38.921875 53.515625 30.90625 
L 53.515625 0 
L 44.484375 0 
L 44.484375 32.71875 
Q 44.484375 40.625 41.703125 44.40625 
Q 38.921875 48.1875 33.109375 48.1875 
Q 26.21875 48.1875 22.15625 43.53125 
Q 18.109375 38.875 18.109375 30.90625 
L 18.109375 0 
L 9.078125 0 
L 9.078125 54.6875 
L 18.109375 54.6875 
L 18.109375 46.1875 
Q 21.1875 51.21875 25.484375 53.609375 
Q 29.78125 56 35.6875 56 
Q 41.65625 56 45.828125 52.96875 
Q 50 49.953125 52 44.1875 
z
" id="DejaVuSans-109"/>
       <path d="M 30.609375 48.390625 
Q 23.390625 48.390625 19.1875 42.75 
Q 14.984375 37.109375 14.984375 27.296875 
Q 14.984375 17.484375 19.15625 11.84375 
Q 23.34375 6.203125 30.609375 6.203125 
Q 37.796875 6.203125 41.984375 11.859375 
Q 46.1875 17.53125 46.1875 27.296875 
Q 46.1875 37.015625 41.984375 42.703125 
Q 37.796875 48.390625 30.609375 48.390625 
z
M 30.609375 56 
Q 42.328125 56 49.015625 48.375 
Q 55.71875 40.765625 55.71875 27.296875 
Q 55.71875 13.875 49.015625 6.21875 
Q 42.328125 -1.421875 30.609375 -1.421875 
Q 18.84375 -1.421875 12.171875 6.21875 
Q 5.515625 13.875 5.515625 27.296875 
Q 5.515625 40.765625 12.171875 48.375 
Q 18.84375 56 30.609375 56 
z
" id="DejaVuSans-111"/>
       <path d="M 18.3125 70.21875 
L 18.3125 54.6875 
L 36.8125 54.6875 
L 36.8125 47.703125 
L 18.3125 47.703125 
L 18.3125 18.015625 
Q 18.3125 11.328125 20.140625 9.421875 
Q 21.96875 7.515625 27.59375 7.515625 
L 36.8125 7.515625 
L 36.8125 0 
L 27.59375 0 
Q 17.1875 0 13.234375 3.875 
Q 9.28125 7.765625 9.28125 18.015625 
L 9.28125 47.703125 
L 2.6875 47.703125 
L 2.6875 54.6875 
L 9.28125 54.6875 
L 9.28125 70.21875 
z
" id="DejaVuSans-116"/>
       <path id="DejaVuSans-32"/>
       <path d="M 44.28125 53.078125 
L 44.28125 44.578125 
Q 40.484375 46.53125 36.375 47.5 
Q 32.28125 48.484375 27.875 48.484375 
Q 21.1875 48.484375 17.84375 46.4375 
Q 14.5 44.390625 14.5 40.28125 
Q 14.5 37.15625 16.890625 35.375 
Q 19.28125 33.59375 26.515625 31.984375 
L 29.59375 31.296875 
Q 39.15625 29.25 43.1875 25.515625 
Q 47.21875 21.78125 47.21875 15.09375 
Q 47.21875 7.46875 41.1875 3.015625 
Q 35.15625 -1.421875 24.609375 -1.421875 
Q 20.21875 -1.421875 15.453125 -0.5625 
Q 10.6875 0.296875 5.421875 2 
L 5.421875 11.28125 
Q 10.40625 8.6875 15.234375 7.390625 
Q 20.0625 6.109375 24.8125 6.109375 
Q 31.15625 6.109375 34.5625 8.28125 
Q 37.984375 10.453125 37.984375 14.40625 
Q 37.984375 18.0625 35.515625 20.015625 
Q 33.0625 21.96875 24.703125 23.78125 
L 21.578125 24.515625 
Q 13.234375 26.265625 9.515625 29.90625 
Q 5.8125 33.546875 5.8125 39.890625 
Q 5.8125 47.609375 11.28125 51.796875 
Q 16.75 56 26.8125 56 
Q 31.78125 56 36.171875 55.265625 
Q 40.578125 54.546875 44.28125 53.078125 
z
" id="DejaVuSans-115"/>
       <path d="M 9.421875 75.984375 
L 18.40625 75.984375 
L 18.40625 0 
L 9.421875 0 
z
" id="DejaVuSans-108"/>
       <path d="M 41.109375 46.296875 
Q 39.59375 47.171875 37.8125 47.578125 
Q 36.03125 48 33.890625 48 
Q 26.265625 48 22.1875 43.046875 
Q 18.109375 38.09375 18.109375 28.8125 
L 18.109375 0 
L 9.078125 0 
L 9.078125 54.6875 
L 18.109375 54.6875 
L 18.109375 46.1875 
Q 20.953125 51.171875 25.484375 53.578125 
Q 30.03125 56 36.53125 56 
Q 37.453125 56 38.578125 55.875 
Q 39.703125 55.765625 41.0625 55.515625 
z
" id="DejaVuSans-114"/>
       <path d="M 32.171875 -5.078125 
Q 28.375 -14.84375 24.75 -17.8125 
Q 21.140625 -20.796875 15.09375 -20.796875 
L 7.90625 -20.796875 
L 7.90625 -13.28125 
L 13.1875 -13.28125 
Q 16.890625 -13.28125 18.9375 -11.515625 
Q 21 -9.765625 23.484375 -3.21875 
L 25.09375 0.875 
L 2.984375 54.6875 
L 12.5 54.6875 
L 29.59375 11.921875 
L 46.6875 54.6875 
L 56.203125 54.6875 
z
" id="DejaVuSans-121"/>
      </defs>
      <use xlink:href="#DejaVuSans-84"/>
      <use x="44.583984" xlink:href="#DejaVuSans-97"/>
      <use x="105.863281" xlink:href="#DejaVuSans-110"/>
      <use x="169.242188" xlink:href="#DejaVuSans-105"/>
      <use x="197.025391" xlink:href="#DejaVuSans-109"/>
      <use x="294.4375" xlink:href="#DejaVuSans-111"/>
      <use x="355.619141" xlink:href="#DejaVuSans-116"/>
      <use x="394.828125" xlink:href="#DejaVuSans-111"/>
      <use x="456.009766" xlink:href="#DejaVuSans-32"/>
      <use x="487.796875" xlink:href="#DejaVuSans-115"/>
      <use x="539.896484" xlink:href="#DejaVuSans-105"/>
      <use x="567.679688" xlink:href="#DejaVuSans-109"/>
      <use x="665.091797" xlink:href="#DejaVuSans-105"/>
      <use x="692.875" xlink:href="#DejaVuSans-108"/>
      <use x="720.658203" xlink:href="#DejaVuSans-97"/>
      <use x="781.9375" xlink:href="#DejaVuSans-114"/>
      <use x="823.050781" xlink:href="#DejaVuSans-105"/>
      <use x="850.833984" xlink:href="#DejaVuSans-116"/>
      <use x="890.042969" xlink:href="#DejaVuSans-121"/>
     </g>
    </g>
   </g>
   <g id="matplotlib.axis_2">
    <g id="ytick_1">
     <g id="line2d_15">
      <path clip-path="url(#p75c8e129fe)" d="M 90 315 
L 648 315 
" style="fill:none;stroke:#b0b0b0;stroke-linecap:square;stroke-width:0.8;"/>
     </g>
     <g id="line2d_16">
      <defs>
       <path d="M 0 0 
L -3.5 0 
" id="mc743cf6c2b" style="stroke:#000000;stroke-width:0.8;"/>
      </defs>
      <g>
       <use style="stroke:#000000;stroke-width:0.8;" x="90" xlink:href="#mc743cf6c2b" y="315"/>
      </g>
     </g>
     <g id="text_9">
      <!-- 0 -->
      <g transform="translate(76.6375 318.799219)scale(0.1 -0.1)">
       <use xlink:href="#DejaVuSans-48"/>
      </g>
     </g>
    </g>
    <g id="ytick_2">
     <g id="line2d_17">
      <path clip-path="url(#p75c8e129fe)" d="M 90 284.645353 
L 648 284.645353 
" style="fill:none;stroke:#b0b0b0;stroke-linecap:square;stroke-width:0.8;"/>
     </g>
     <g id="line2d_18">
      <g>
       <use style="stroke:#000000;stroke-width:0.8;" x="90" xlink:href="#mc743cf6c2b" y="284.645353"/>
      </g>
     </g>
     <g id="text_10">
      <!-- 25000 -->
      <g transform="translate(51.1875 288.444572)scale(0.1 -0.1)">
       <use xlink:href="#DejaVuSans-50"/>
       <use x="63.623047" xlink:href="#DejaVuSans-53"/>
       <use x="127.246094" xlink:href="#DejaVuSans-48"/>
       <use x="190.869141" xlink:href="#DejaVuSans-48"/>
       <use x="254.492188" xlink:href="#DejaVuSans-48"/>
      </g>
     </g>
    </g>
    <g id="ytick_3">
     <g id="line2d_19">
      <path clip-path="url(#p75c8e129fe)" d="M 90 254.290706 
L 648 254.290706 
" style="fill:none;stroke:#b0b0b0;stroke-linecap:square;stroke-width:0.8;"/>
     </g>
     <g id="line2d_20">
      <g>
       <use style="stroke:#000000;stroke-width:0.8;" x="90" xlink:href="#mc743cf6c2b" y="254.290706"/>
      </g>
     </g>
     <g id="text_11">
      <!-- 50000 -->
      <g transform="translate(51.1875 258.089925)scale(0.1 -0.1)">
       <use xlink:href="#DejaVuSans-53"/>
       <use x="63.623047" xlink:href="#DejaVuSans-48"/>
       <use x="127.246094" xlink:href="#DejaVuSans-48"/>
       <use x="190.869141" xlink:href="#DejaVuSans-48"/>
       <use x="254.492188" xlink:href="#DejaVuSans-48"/>
      </g>
     </g>
    </g>
    <g id="ytick_4">
     <g id="line2d_21">
      <path clip-path="url(#p75c8e129fe)" d="M 90 223.93606 
L 648 223.93606 
" style="fill:none;stroke:#b0b0b0;stroke-linecap:square;stroke-width:0.8;"/>
     </g>
     <g id="line2d_22">
      <g>
       <use style="stroke:#000000;stroke-width:0.8;" x="90" xlink:href="#mc743cf6c2b" y="223.93606"/>
      </g>
     </g>
     <g id="text_12">
      <!-- 75000 -->
      <g transform="translate(51.1875 227.735278)scale(0.1 -0.1)">
       <defs>
        <path d="M 8.203125 72.90625 
L 55.078125 72.90625 
L 55.078125 68.703125 
L 28.609375 0 
L 18.3125 0 
L 43.21875 64.59375 
L 8.203125 64.59375 
z
" id="DejaVuSans-55"/>
       </defs>
       <use xlink:href="#DejaVuSans-55"/>
       <use x="63.623047" xlink:href="#DejaVuSans-53"/>
       <use x="127.246094" xlink:href="#DejaVuSans-48"/>
       <use x="190.869141" xlink:href="#DejaVuSans-48"/>
       <use x="254.492188" xlink:href="#DejaVuSans-48"/>
      </g>
     </g>
    </g>
    <g id="ytick_5">
     <g id="line2d_23">
      <path clip-path="url(#p75c8e129fe)" d="M 90 193.581413 
L 648 193.581413 
" style="fill:none;stroke:#b0b0b0;stroke-linecap:square;stroke-width:0.8;"/>
     </g>
     <g id="line2d_24">
      <g>
       <use style="stroke:#000000;stroke-width:0.8;" x="90" xlink:href="#mc743cf6c2b" y="193.581413"/>
      </g>
     </g>
     <g id="text_13">
      <!-- 100000 -->
      <g transform="translate(44.825 197.380632)scale(0.1 -0.1)">
       <use xlink:href="#DejaVuSans-49"/>
       <use x="63.623047" xlink:href="#DejaVuSans-48"/>
       <use x="127.246094" xlink:href="#DejaVuSans-48"/>
       <use x="190.869141" xlink:href="#DejaVuSans-48"/>
       <use x="254.492188" xlink:href="#DejaVuSans-48"/>
       <use x="318.115234" xlink:href="#DejaVuSans-48"/>
      </g>
     </g>
    </g>
    <g id="ytick_6">
     <g id="line2d_25">
      <path clip-path="url(#p75c8e129fe)" d="M 90 163.226766 
L 648 163.226766 
" style="fill:none;stroke:#b0b0b0;stroke-linecap:square;stroke-width:0.8;"/>
     </g>
     <g id="line2d_26">
      <g>
       <use style="stroke:#000000;stroke-width:0.8;" x="90" xlink:href="#mc743cf6c2b" y="163.226766"/>
      </g>
     </g>
     <g id="text_14">
      <!-- 125000 -->
      <g transform="translate(44.825 167.025985)scale(0.1 -0.1)">
       <use xlink:href="#DejaVuSans-49"/>
       <use x="63.623047" xlink:href="#DejaVuSans-50"/>
       <use x="127.246094" xlink:href="#DejaVuSans-53"/>
       <use x="190.869141" xlink:href="#DejaVuSans-48"/>
       <use x="254.492188" xlink:href="#DejaVuSans-48"/>
       <use x="318.115234" xlink:href="#DejaVuSans-48"/>
      </g>
     </g>
    </g>
    <g id="ytick_7">
     <g id="line2d_27">
      <path clip-path="url(#p75c8e129fe)" d="M 90 132.872119 
L 648 132.872119 
" style="fill:none;stroke:#b0b0b0;stroke-linecap:square;stroke-width:0.8;"/>
     </g>
     <g id="line2d_28">
      <g>
       <use style="stroke:#000000;stroke-width:0.8;" x="90" xlink:href="#mc743cf6c2b" y="132.872119"/>
      </g>
     </g>
     <g id="text_15">
      <!-- 150000 -->
      <g transform="translate(44.825 136.671338)scale(0.1 -0.1)">
       <use xlink:href="#DejaVuSans-49"/>
       <use x="63.623047" xlink:href="#DejaVuSans-53"/>
       <use x="127.246094" xlink:href="#DejaVuSans-48"/>
       <use x="190.869141" xlink:href="#DejaVuSans-48"/>
       <use x="254.492188" xlink:href="#DejaVuSans-48"/>
       <use x="318.115234" xlink:href="#DejaVuSans-48"/>
      </g>
     </g>
    </g>
    <g id="ytick_8">
     <g id="line2d_29">
      <path clip-path="url(#p75c8e129fe)" d="M 90 102.517472 
L 648 102.517472 
" style="fill:none;stroke:#b0b0b0;stroke-linecap:square;stroke-width:0.8;"/>
     </g>
     <g id="line2d_30">
      <g>
       <use style="stroke:#000000;stroke-width:0.8;" x="90" xlink:href="#mc743cf6c2b" y="102.517472"/>
      </g>
     </g>
     <g id="text_16">
      <!-- 175000 -->
      <g transform="translate(44.825 106.316691)scale(0.1 -0.1)">
       <use xlink:href="#DejaVuSans-49"/>
       <use x="63.623047" xlink:href="#DejaVuSans-55"/>
       <use x="127.246094" xlink:href="#DejaVuSans-53"/>
       <use x="190.869141" xlink:href="#DejaVuSans-48"/>
       <use x="254.492188" xlink:href="#DejaVuSans-48"/>
       <use x="318.115234" xlink:href="#DejaVuSans-48"/>
      </g>
     </g>
    </g>
    <g id="ytick_9">
     <g id="line2d_31">
      <path clip-path="url(#p75c8e129fe)" d="M 90 72.162826 
L 648 72.162826 
" style="fill:none;stroke:#b0b0b0;stroke-linecap:square;stroke-width:0.8;"/>
     </g>
     <g id="line2d_32">
      <g>
       <use style="stroke:#000000;stroke-width:0.8;" x="90" xlink:href="#mc743cf6c2b" y="72.162826"/>
      </g>
     </g>
     <g id="text_17">
      <!-- 200000 -->
      <g transform="translate(44.825 75.962044)scale(0.1 -0.1)">
       <use xlink:href="#DejaVuSans-50"/>
       <use x="63.623047" xlink:href="#DejaVuSans-48"/>
       <use x="127.246094" xlink:href="#DejaVuSans-48"/>
       <use x="190.869141" xlink:href="#DejaVuSans-48"/>
       <use x="254.492188" xlink:href="#DejaVuSans-48"/>
       <use x="318.115234" xlink:href="#DejaVuSans-48"/>
      </g>
     </g>
    </g>
    <g id="text_18">
     <!-- Frequency -->
     <g transform="translate(37.913437 215.261562)rotate(-90)scale(0.14 -0.14)">
      <defs>
       <path d="M 9.8125 72.90625 
L 51.703125 72.90625 
L 51.703125 64.59375 
L 19.671875 64.59375 
L 19.671875 43.109375 
L 48.578125 43.109375 
L 48.578125 34.8125 
L 19.671875 34.8125 
L 19.671875 0 
L 9.8125 0 
z
" id="DejaVuSans-70"/>
       <path d="M 56.203125 29.59375 
L 56.203125 25.203125 
L 14.890625 25.203125 
Q 15.484375 15.921875 20.484375 11.0625 
Q 25.484375 6.203125 34.421875 6.203125 
Q 39.59375 6.203125 44.453125 7.46875 
Q 49.3125 8.734375 54.109375 11.28125 
L 54.109375 2.78125 
Q 49.265625 0.734375 44.1875 -0.34375 
Q 39.109375 -1.421875 33.890625 -1.421875 
Q 20.796875 -1.421875 13.15625 6.1875 
Q 5.515625 13.8125 5.515625 26.8125 
Q 5.515625 40.234375 12.765625 48.109375 
Q 20.015625 56 32.328125 56 
Q 43.359375 56 49.78125 48.890625 
Q 56.203125 41.796875 56.203125 29.59375 
z
M 47.21875 32.234375 
Q 47.125 39.59375 43.09375 43.984375 
Q 39.0625 48.390625 32.421875 48.390625 
Q 24.90625 48.390625 20.390625 44.140625 
Q 15.875 39.890625 15.1875 32.171875 
z
" id="DejaVuSans-101"/>
       <path d="M 14.796875 27.296875 
Q 14.796875 17.390625 18.875 11.75 
Q 22.953125 6.109375 30.078125 6.109375 
Q 37.203125 6.109375 41.296875 11.75 
Q 45.40625 17.390625 45.40625 27.296875 
Q 45.40625 37.203125 41.296875 42.84375 
Q 37.203125 48.484375 30.078125 48.484375 
Q 22.953125 48.484375 18.875 42.84375 
Q 14.796875 37.203125 14.796875 27.296875 
z
M 45.40625 8.203125 
Q 42.578125 3.328125 38.25 0.953125 
Q 33.9375 -1.421875 27.875 -1.421875 
Q 17.96875 -1.421875 11.734375 6.484375 
Q 5.515625 14.40625 5.515625 27.296875 
Q 5.515625 40.1875 11.734375 48.09375 
Q 17.96875 56 27.875 56 
Q 33.9375 56 38.25 53.625 
Q 42.578125 51.265625 45.40625 46.390625 
L 45.40625 54.6875 
L 54.390625 54.6875 
L 54.390625 -20.796875 
L 45.40625 -20.796875 
z
" id="DejaVuSans-113"/>
       <path d="M 8.5 21.578125 
L 8.5 54.6875 
L 17.484375 54.6875 
L 17.484375 21.921875 
Q 17.484375 14.15625 20.5 10.265625 
Q 23.53125 6.390625 29.59375 6.390625 
Q 36.859375 6.390625 41.078125 11.03125 
Q 45.3125 15.671875 45.3125 23.6875 
L 45.3125 54.6875 
L 54.296875 54.6875 
L 54.296875 0 
L 45.3125 0 
L 45.3125 8.40625 
Q 42.046875 3.421875 37.71875 1 
Q 33.40625 -1.421875 27.6875 -1.421875 
Q 18.265625 -1.421875 13.375 4.4375 
Q 8.5 10.296875 8.5 21.578125 
z
M 31.109375 56 
z
" id="DejaVuSans-117"/>
       <path d="M 48.78125 52.59375 
L 48.78125 44.1875 
Q 44.96875 46.296875 41.140625 47.34375 
Q 37.3125 48.390625 33.40625 48.390625 
Q 24.65625 48.390625 19.8125 42.84375 
Q 14.984375 37.3125 14.984375 27.296875 
Q 14.984375 17.28125 19.8125 11.734375 
Q 24.65625 6.203125 33.40625 6.203125 
Q 37.3125 6.203125 41.140625 7.25 
Q 44.96875 8.296875 48.78125 10.40625 
L 48.78125 2.09375 
Q 45.015625 0.34375 40.984375 -0.53125 
Q 36.96875 -1.421875 32.421875 -1.421875 
Q 20.0625 -1.421875 12.78125 6.34375 
Q 5.515625 14.109375 5.515625 27.296875 
Q 5.515625 40.671875 12.859375 48.328125 
Q 20.21875 56 33.015625 56 
Q 37.15625 56 41.109375 55.140625 
Q 45.0625 54.296875 48.78125 52.59375 
z
" id="DejaVuSans-99"/>
      </defs>
      <use xlink:href="#DejaVuSans-70"/>
      <use x="50.269531" xlink:href="#DejaVuSans-114"/>
      <use x="89.132812" xlink:href="#DejaVuSans-101"/>
      <use x="150.65625" xlink:href="#DejaVuSans-113"/>
      <use x="214.132812" xlink:href="#DejaVuSans-117"/>
      <use x="277.511719" xlink:href="#DejaVuSans-101"/>
      <use x="339.035156" xlink:href="#DejaVuSans-110"/>
      <use x="402.414062" xlink:href="#DejaVuSans-99"/>
      <use x="457.394531" xlink:href="#DejaVuSans-121"/>
     </g>
    </g>
   </g>
   <g id="patch_103">
    <path d="M 90 315 
L 90 43.2 
" style="fill:none;stroke:#000000;stroke-linecap:square;stroke-linejoin:miter;stroke-width:0.8;"/>
   </g>
   <g id="patch_104">
    <path d="M 648 315 
L 648 43.2 
" style="fill:none;stroke:#000000;stroke-linecap:square;stroke-linejoin:miter;stroke-width:0.8;"/>
   </g>
   <g id="patch_105">
    <path d="M 90 315 
L 648 315 
" style="fill:none;stroke:#000000;stroke-linecap:square;stroke-linejoin:miter;stroke-width:0.8;"/>
   </g>
   <g id="patch_106">
    <path d="M 90 43.2 
L 648 43.2 
" style="fill:none;stroke:#000000;stroke-linecap:square;stroke-linejoin:miter;stroke-width:0.8;"/>
   </g>
  </g>
 </g>
 <defs>
  <clipPath id="p75c8e129fe">
   <rect height="271.8" width="558" x="90" y="43.2"/>
  </clipPath>
 </defs>
</svg>
